<?xml version="1.0" encoding="UTF-8" standalone="no"?>
<!-- Created with Inkscape (http://www.inkscape.org/) -->

<svg
   width="241.16602"
   height="241.16602"
   viewBox="0 0 241.16602 241.16602"
   version="1.1"
   id="svg1"
   xml:space="preserve"
   sodipodi:docname="24-10-2023.svg"
   inkscape:version="1.3 (0e150ed6c4, 2023-07-21)"
   xmlns:inkscape="http://www.inkscape.org/namespaces/inkscape"
   xmlns:sodipodi="http://sodipodi.sourceforge.net/DTD/sodipodi-0.dtd"
   xmlns="http://www.w3.org/2000/svg"
   xmlns:svg="http://www.w3.org/2000/svg"><sodipodi:namedview
     id="namedview1"
     pagecolor="#ffffff"
     bordercolor="#000000"
     borderopacity="0.25"
     inkscape:showpageshadow="2"
     inkscape:pageopacity="0.0"
     inkscape:pagecheckerboard="0"
     inkscape:deskcolor="#d1d1d1"
     inkscape:document-units="px"
     inkscape:zoom="0.54660447"
     inkscape:cx="120.74545"
     inkscape:cy="120.74545"
     inkscape:window-width="1920"
     inkscape:window-height="1009"
     inkscape:window-x="-8"
     inkscape:window-y="-8"
     inkscape:window-maximized="1"
     inkscape:current-layer="layer1" /><defs
     id="defs1" /><g
     inkscape:label="Layer 1"
     inkscape:groupmode="layer"
     id="layer1"
     transform="translate(392.98437,114.3418)"><path
       id="rect2"
       style="fill:#1a1a1a;stroke-width:4.91339;stroke-linecap:square;stroke-linejoin:bevel;stroke-miterlimit:100;paint-order:stroke fill markers"
       d="m -356.77344,-114.3418 c -20.06062,0 -36.21094,16.150319 -36.21094,36.210941 v 168.74414 c 0,20.060619 16.15032,36.210939 36.21094,36.210939 h 168.74414 c 20.06062,0 36.21094,-16.15032 36.21094,-36.210939 v -168.74414 c 0,-20.060622 -16.15032,-36.210941 -36.21094,-36.210941 z m 31.47266,29.271488 c 9.68178,0.01826 21.10322,3.384447 33.04297,9.738281 19.68496,10.475529 39.3756,26.365477 77.61914,62.644531 7.62106,7.2295828 10.6172,9.9755347 11.96289,10.9648438 l 0.48828,0.3613281 0.50781,-1.0742188 c 0.74053,-1.5675584 1.58628,-3.7381818 2.42774,-6.2246093 1.39526,-4.1229258 2.17816,-7.4184948 3.14453,-13.2617188 0.74277,-4.491176 0.837,-4.713975 2.49804,-5.902344 0.96685,-0.691729 2.01313,-0.924709 4.09766,-0.912109 1.54638,0.0092 1.81902,0.04153 2.69531,0.324219 1.61118,0.519759 2.56104,1.182781 3.03516,2.11914 l 0.26563,0.527344 -0.26954,3.556641 c -0.1485,1.956218 -0.30104,3.763205 -0.33984,4.015625 -0.11701,0.761439 -1.97991,8.4353283 -2.47266,10.1855465 -1.03863,3.6891663 -2.9238,8.91558259 -4.375,12.1308594 -0.84611,1.8746381 -1.57017,3.6430727 -1.57617,3.8515625 -0.005,0.1763898 2.26515,2.3698196 6.19141,5.9785156 1.86154,1.710988 3.72068,3.456117 4.13086,3.878906 0.82488,0.850239 2.89842,2.582031 3.09179,2.582031 0.0677,0 0.41922,0.297307 0.78125,0.660157 0.36204,0.362849 1.01922,0.963484 1.46094,1.333984 0.44173,0.37049 1.19502,1.040395 1.67383,1.490235 0.4788,0.449849 1.15621,1.04101 1.50586,1.3125 1.1039,0.857179 2.88559,2.974264 3.44531,4.095703 0.4266,0.854719 0.59975,1.710112 0.59375,2.925781 -0.012,2.252598 -1.00906,4.500767 -2.46875,5.572266 -1.26225,0.926569 -3.36515,1.265848 -4.6914,0.755859 -0.86408,-0.33226 -2.44791,-1.380372 -3.95899,-2.619141 -1.54465,-1.266278 -5.23175,-4.53531 -6.71094,-5.949218 -0.59948,-0.57302 -2.69223,-2.463797 -4.64843,-4.203126 -1.95622,-1.739348 -4.25358,-3.793233 -5.10547,-4.564453 -0.85191,-0.771229 -1.63629,-1.451065 -1.74414,-1.509765 -0.16121,-0.08776 -0.33378,0.07396 -0.97461,0.90625 -0.96376,1.251668 -1.56035,2.058244 -2.98438,4.039062 -5.47733,7.618953 -13.82937,15.405529 -22.29101,20.783203 -10.41645,6.620044 -21.62833,10.459063 -34.65039,11.863282 -1.56496,0.168839 -7.79168,0.312743 -9.29297,0.214843 -7.24031,-0.472219 -12.13155,-1.273335 -18.10742,-2.964843 -4.85038,-1.372939 -9.17151,-3.049087 -14.07618,-5.458985 -7.05486,-3.466386 -13.6677,-7.906806 -19.90625,-13.36914 -1.91224,-1.674339 -6.9924,-6.744225 -8.61914,-8.601563 -7.31476,-8.351672 -13.15492,-17.4015994 -17.36718,-26.90624988 -0.48942,-1.10431889 -1.80872,-4.27814032 -2.92969,-7.05468752 -2.53299,-6.2740136 -2.96701,-7.2785836 -4.3086,-9.9257816 -1.19677,-2.361417 -1.8509,-3.425122 -2.89062,-4.71289 -2.39561,-2.967147 -5.74514,-4.241209 -10.61328,-4.03711 -1.35235,0.0567 -1.63403,0.03424 -2.33008,-0.177734 -0.97998,-0.29846 -1.71139,-0.754664 -2.65234,-1.658203 -0.93668,-0.899439 -1.4399,-1.66781 -1.83008,-2.792969 -0.29574,-0.855689 -0.31284,-1.01208 -0.30274,-2.855469 0.0353,-6.255983 2.30879,-15.352594 5.60547,-22.429687 5.43818,-11.674298 13.37427,-19.832835 24.66016,-25.34961 3.28684,-1.606668 4.82618,-2.138975 8.63086,-2.984374 4.18427,-0.92974 7.42902,-1.3195 10.93164,-1.3125 z m 1.83594,13.880859 c -2.46092,0.0055 -3.73972,0.123634 -8.08789,0.746094 -4.17118,0.597119 -5.45549,0.969569 -8.37696,2.429687 -9.97212,4.983955 -16.81172,12.652615 -20.7832,23.302734 -1.09717,2.942438 -1.54917,5.056307 -1.16406,5.441407 0.0757,0.07572 0.35009,0.136719 0.61133,0.136719 1.62854,0 6.26678,1.890655 8.48632,3.458984 1.25554,0.887149 3.08614,2.695242 4.01172,3.96289 2.35764,3.228967 4.92896,8.420144 7.94336,16.041016 2.54022,6.4221037 3.13197,7.8737096 4.03125,9.8671876 2.19449,4.86469516 5.00468,9.9466554 7.45508,13.4824219 7.00152,10.1027995 14.55393,17.6908125 23.60351,23.7167965 9.10962,6.065964 19.25617,10.053786 29.25391,11.496094 1.8989,0.27395 4.64268,0.562693 6.61524,0.695313 2.52681,0.169869 6.3329,-0.06362 11.33984,-0.695313 6.62716,-0.836079 9.88142,-1.607194 14.83008,-3.507812 4.86335,-1.867889 8.2969,-3.635161 14.3125,-7.373047 2.26834,-1.409459 3.8253,-2.675428 8.14062,-6.621094 3.34598,-3.059357 7.11662,-7.117184 8.46485,-9.107422 0.4916,-0.725689 1.37208,-1.949907 1.95703,-2.722656 1.23343,-1.629478 1.85895,-2.626921 1.85937,-2.962891 1.9e-4,-0.15746 -0.82084,-1.0484095 -2.4375,-2.6425779 -6.33943,-6.2512137 -32.55231,-30.8464411 -39.55664,-37.1152341 -0.53478,-0.47863 -2.21208,-1.907953 -3.72656,-3.175782 -1.51449,-1.267838 -3.88906,-3.269066 -5.27734,-4.447265 -15.78073,-13.392617 -30.43687,-23.435659 -41.07422,-28.146485 -5.96876,-2.643297 -11.07415,-4.449667 -15.10157,-5.341796 -3.59907,-0.79724 -4.621,-0.923969 -7.33007,-0.917969 z m -14.46289,16.740234 c 1.24758,0 1.37027,0.0209 2.07226,0.357422 1.36149,0.652689 2.25244,1.572085 3.0332,3.126953 1.1055,2.201518 1.16024,4.701916 0.14844,6.777344 -0.50011,1.025819 -1.93135,2.457962 -2.95508,2.957031 -1.18797,0.5792 -2.70841,0.597242 -3.95703,0.04492 -1.30108,-0.575529 -2.39443,-1.719081 -3.23242,-3.380859 -1.7957,-3.561037 -0.59199,-7.837196 2.6543,-9.433594 0.90069,-0.44322 0.92724,-0.449219 2.23633,-0.449219 z m -25.40625,120.498047 c 3.49065,0 5.68976,1.348833 7.00976,3.548828 l -3.37305,1.701172 c -0.70399,-1.202664 -1.99405,-1.964844 -3.63671,-1.964844 -1.87733,0 -2.75782,0.879659 -2.75782,1.847657 0,1.143997 1.34836,1.436808 3.92969,1.99414 2.81599,0.557332 6.04297,1.554117 6.04297,5.16211 0,2.405328 -2.14041,5.603515 -7.03906,5.603515 -3.84266,0 -6.24829,-1.467355 -7.62696,-4.166015 l 3.66602,-1.759766 c 0.82133,1.61333 2.25939,2.494141 4.13672,2.494141 1.96533,0 2.93359,-0.939987 2.93359,-2.083985 0,-1.26133 -1.90753,-1.495511 -4.01953,-1.964843 -2.93333,-0.615999 -6.01367,-1.554118 -6.01367,-5.16211 0,-2.757327 2.67072,-5.25 6.74805,-5.25 z m 18.41992,0.0293 c 4.31199,0 8.44922,3.254658 8.44922,8.945313 0,5.631987 -4.28393,8.917968 -8.41993,8.917968 -2.34666,0 -4.39889,-0.851623 -5.60156,-2.376953 v 9.916016 h -3.93164 V 66.429688 h 3.93164 v 2.287109 c 1.20267,-1.61333 3.22561,-2.638672 5.57227,-2.638672 z m 18.1875,0 c 2.25866,0 4.25234,0.9083 5.51367,2.404297 v -2.052734 h 3.96094 v 17.160156 h -3.96094 v -2.230469 c -1.26133,1.61333 -3.3136,2.582031 -5.57227,2.582031 -4.13599,0 -8.44726,-3.285981 -8.44726,-8.917968 0,-5.690655 4.16453,-8.945313 8.50586,-8.945313 z m 44.9082,0 c 4.92799,0 8.88867,3.929323 8.88867,8.945313 0,4.927989 -3.96068,8.917968 -8.88867,8.917968 -4.95732,0 -8.88672,-3.989979 -8.88672,-8.917968 0,-5.01599 3.9294,-8.945313 8.88672,-8.945313 z m 47.4043,0 c 4.31199,0 6.80468,2.668041 6.80468,7.332031 v 10.179688 h -4.01953 v -9.767578 c 0,-2.669328 -1.28976,-4.3125 -3.87109,-4.3125 -2.25866,0 -4.01953,1.642735 -4.01953,4.664062 v 9.416016 h -3.95899 V 66.429688 h 3.92969 v 2.111328 c 1.144,-1.495997 2.90544,-2.462891 5.13477,-2.462891 z m 17.42383,0 c 4.92799,0 8.88671,3.929323 8.88671,8.945313 0,4.927989 -3.95872,8.917968 -8.88671,8.917968 -4.95733,0 -8.88868,-3.989979 -8.88868,-8.917968 0,-5.01599 3.93135,-8.945313 8.88868,-8.945313 z m 33.49804,0 c 2.25866,0 4.2543,0.9083 5.51563,2.404297 v -2.052734 h 3.95898 v 17.160156 h -3.95898 v -2.230469 c -1.26133,1.61333 -3.31556,2.582031 -5.57422,2.582031 -4.13599,0 -8.44727,-3.285981 -8.44727,-8.917968 0,-5.690655 4.16454,-8.945313 8.50586,-8.945313 z m -131.35547,0.351563 h 3.93164 v 2.550781 c 0.792,-1.70133 2.25907,-2.550781 4.4004,-2.550781 1.26133,-1e-6 2.22948,0.292422 3.02148,0.732421 l -1.49609,3.75586 c -0.58667,-0.381333 -1.23296,-0.675781 -2.37696,-0.675781 -2.31733,0 -3.51953,1.232652 -3.51953,4.195312 v 9.152344 h -3.96094 z m 12.64454,0 h 3.92968 v 2.550781 c 0.792,-1.70133 2.25906,-2.550781 4.40039,-2.550781 1.26133,-1e-6 2.22949,0.292422 3.02149,0.732421 l -1.4961,3.75586 c -0.58666,-0.381333 -1.23295,-0.675781 -2.37695,-0.675781 -2.31733,0 -3.51953,1.232652 -3.51953,4.195312 v 9.152344 h -3.95898 z m 29.06835,0 h 4.04883 l 3.78321,11.820312 4.3125,-11.820312 h 3.92968 l 4.22461,11.849609 3.92969,-11.849609 h 4.01953 l -6.01367,17.160156 h -3.8125 l -4.3418,-11.88086 -4.45898,11.88086 h -3.90039 z m 64.5625,0 h 4.13672 l 4.42774,12.085937 4.34179,-12.085937 h 4.07813 l -6.45313,17.160156 h -3.99023 z M -345.5293,69.68555 c -2.96266,0 -5.10351,2.34597 -5.10351,5.279297 0,2.96266 2.14085,5.339844 5.10351,5.339844 2.904,0 5.16211,-2.347851 5.16211,-5.339844 0,-2.962661 -2.25811,-5.279297 -5.16211,-5.279297 z m 19.38868,0 c -2.93333,0 -5.19141,2.316636 -5.19141,5.279297 0,2.991993 2.25808,5.339844 5.19141,5.339844 2.96266,0 5.13476,-2.377184 5.13476,-5.339844 0,-2.933327 -2.1721,-5.279297 -5.13476,-5.279297 z m 143.23437,0 c -2.93333,0 -5.19141,2.316636 -5.19141,5.279297 0,2.991993 2.25808,5.339844 5.19141,5.339844 2.96266,0 5.13477,-2.377184 5.13477,-5.339844 0,-2.933327 -2.17211,-5.279297 -5.13477,-5.279297 z m -98.91211,0.117187 c -2.84533,0 -4.98633,2.31671 -4.98633,5.220704 0,2.845327 2.141,5.193359 4.98633,5.193359 2.81599,0 4.98828,-2.348032 4.98828,-5.193359 0,-2.903994 -2.17229,-5.220704 -4.98828,-5.220704 z m 64.82813,0 c -2.84533,0 -4.98633,2.31671 -4.98633,5.220704 0,2.845327 2.141,5.193359 4.98633,5.193359 2.81599,0 4.98632,-2.348032 4.98632,-5.193359 0,-2.903994 -2.17033,-5.220704 -4.98632,-5.220704 z" /><path
       id="rect2-1"
       style="fill:#1a1a1a;stroke-width:4.91339;stroke-linecap:square;stroke-linejoin:bevel;stroke-miterlimit:100;paint-order:stroke fill markers"
       d="m -716.44434,-534.47176 c -20.06062,0 -36.21094,16.15032 -36.21094,36.21094 v 168.74414 c 0,20.06062 16.15032,36.21094 36.21094,36.21094 h 168.74414 c 20.06062,0 36.21094,-16.15032 36.21094,-36.21094 v -168.74414 c 0,-20.06062 -16.15032,-36.21094 -36.21094,-36.21094 z m 31.47266,29.27149 c 9.68178,0.0183 21.10322,3.38445 33.04297,9.73828 19.68496,10.47553 39.3756,26.36548 77.61914,62.64453 7.62106,7.22958 10.6172,9.97554 11.96289,10.96485 l 0.48828,0.36132 0.50781,-1.07422 c 0.74053,-1.56755 1.58628,-3.73818 2.42774,-6.2246 1.39526,-4.12293 2.17816,-7.4185 3.14453,-13.26172 0.74277,-4.49118 0.837,-4.71398 2.49804,-5.90235 0.96685,-0.69173 2.01313,-0.92471 4.09766,-0.91211 1.54638,0.009 1.81902,0.0415 2.69531,0.32422 1.61118,0.51976 2.56104,1.18278 3.03516,2.11914 l 0.26563,0.52735 -0.26954,3.55664 c -0.1485,1.95622 -0.30104,3.7632 -0.33984,4.01562 -0.11701,0.76144 -1.97991,8.43533 -2.47266,10.18555 -1.03863,3.68917 -2.9238,8.91558 -4.375,12.13086 -0.84611,1.87464 -1.57017,3.64307 -1.57617,3.85156 -0.005,0.17639 2.26515,2.36982 6.19141,5.97852 1.86154,1.71098 3.72068,3.45611 4.13086,3.8789 0.82488,0.85024 2.89842,2.58203 3.09179,2.58203 0.0677,0 0.41922,0.29731 0.78125,0.66016 0.36204,0.36285 1.01922,0.96348 1.46094,1.33398 0.44173,0.37049 1.19502,1.0404 1.67383,1.49024 0.4788,0.44985 1.15621,1.04101 1.50586,1.3125 1.1039,0.85718 2.88559,2.97426 3.44531,4.0957 0.4266,0.85472 0.59975,1.71011 0.59375,2.92578 -0.012,2.2526 -1.00906,4.50077 -2.46875,5.57227 -1.26225,0.92657 -3.36515,1.26585 -4.6914,0.75586 -0.86408,-0.33226 -2.44791,-1.38037 -3.95899,-2.61914 -1.54465,-1.26628 -5.23175,-4.53531 -6.71094,-5.94922 -0.59948,-0.57302 -2.69223,-2.4638 -4.64843,-4.20313 -1.95622,-1.73934 -4.25358,-3.79323 -5.10547,-4.56445 -0.85191,-0.77123 -1.63629,-1.45106 -1.74414,-1.50976 -0.16121,-0.0878 -0.33378,0.074 -0.97461,0.90625 -0.96376,1.25166 -1.56035,2.05824 -2.98438,4.03906 -5.47733,7.61895 -13.82937,15.40553 -22.29101,20.7832 -10.41645,6.62004 -21.62833,10.45906 -34.65039,11.86328 -1.56496,0.16884 -7.79168,0.31275 -9.29297,0.21485 -7.24031,-0.47222 -12.13155,-1.27334 -18.10742,-2.96485 -4.85038,-1.37294 -9.17151,-3.04908 -14.07618,-5.45898 -7.05486,-3.46639 -13.6677,-7.90681 -19.90625,-13.36914 -1.91224,-1.67434 -6.9924,-6.74423 -8.61914,-8.60157 -7.31476,-8.35167 -13.15492,-17.40159 -17.36718,-26.90625 -0.48942,-1.10431 -1.80872,-4.27814 -2.92969,-7.05468 -2.53299,-6.27402 -2.96701,-7.27859 -4.3086,-9.92578 -1.19677,-2.36142 -1.8509,-3.42513 -2.89062,-4.71289 -2.39561,-2.96715 -5.74514,-4.24121 -10.61328,-4.03711 -1.35235,0.0567 -1.63403,0.0342 -2.33008,-0.17774 -0.97998,-0.29846 -1.71139,-0.75466 -2.65234,-1.6582 -0.93668,-0.89944 -1.4399,-1.66781 -1.83008,-2.79297 -0.29574,-0.85569 -0.31284,-1.01208 -0.30274,-2.85547 0.0353,-6.25598 2.30879,-15.35259 5.60547,-22.42969 5.43818,-11.67429 13.37427,-19.83283 24.66016,-25.34961 3.28684,-1.60666 4.82618,-2.13897 8.63086,-2.98437 4.18427,-0.92974 7.42902,-1.3195 10.93164,-1.3125 z m 1.83594,13.88086 c -2.46092,0.005 -3.73972,0.12363 -8.08789,0.74609 -4.17118,0.59712 -5.45549,0.96957 -8.37696,2.42969 -9.97212,4.98395 -16.81172,12.65261 -20.7832,23.30273 -1.09717,2.94244 -1.54917,5.05631 -1.16406,5.44141 0.0757,0.0757 0.35009,0.13672 0.61133,0.13672 1.62854,0 6.26678,1.89065 8.48632,3.45898 1.25554,0.88715 3.08614,2.69525 4.01172,3.96289 2.35764,3.22897 4.92896,8.42015 7.94336,16.04102 2.54022,6.4221 3.13197,7.87371 4.03125,9.86719 2.19449,4.86469 5.00468,9.94665 7.45508,13.48242 7.00152,10.1028 14.55393,17.69081 23.60351,23.7168 9.10962,6.06596 19.25617,10.05378 29.25391,11.49609 1.8989,0.27395 4.64268,0.56269 6.61524,0.69531 2.52681,0.16987 6.3329,-0.0636 11.33984,-0.69531 6.62716,-0.83608 9.88142,-1.60719 14.83008,-3.50781 4.86335,-1.86789 8.2969,-3.63516 14.3125,-7.37305 2.26834,-1.40946 3.8253,-2.67543 8.14062,-6.62109 3.34598,-3.05936 7.11662,-7.11719 8.46485,-9.10743 0.4916,-0.72568 1.37208,-1.9499 1.95703,-2.72265 1.23343,-1.62948 1.85895,-2.62692 1.85937,-2.96289 1.9e-4,-0.15746 -0.82084,-1.04841 -2.4375,-2.64258 -6.33943,-6.25121 -32.55231,-30.84644 -39.55664,-37.11523 -0.53478,-0.47863 -2.21208,-1.90796 -3.72656,-3.17579 -1.51449,-1.26783 -3.88906,-3.26906 -5.27734,-4.44726 -15.78073,-13.39262 -30.43687,-23.43566 -41.07422,-28.14649 -5.96876,-2.64329 -11.07415,-4.44966 -15.10157,-5.34179 -3.59907,-0.79724 -4.621,-0.92397 -7.33007,-0.91797 z m -14.46289,16.74023 c 1.24758,0 1.37027,0.0209 2.07226,0.35742 1.36149,0.65269 2.25244,1.57209 3.0332,3.12696 1.1055,2.20152 1.16024,4.70191 0.14844,6.77734 -0.50011,1.02582 -1.93135,2.45796 -2.95508,2.95703 -1.18797,0.5792 -2.70841,0.59724 -3.95703,0.0449 -1.30108,-0.57553 -2.39443,-1.71908 -3.23242,-3.38086 -1.7957,-3.56103 -0.59199,-7.83719 2.6543,-9.43359 0.90069,-0.44322 0.92724,-0.44922 2.23633,-0.44922 z m -25.40625,120.49805 c 3.49065,0 5.68976,1.34883 7.00976,3.54883 l -3.37305,1.70117 c -0.70399,-1.20266 -1.99405,-1.96484 -3.63671,-1.96484 -1.87733,0 -2.75782,0.87965 -2.75782,1.84765 0,1.144 1.34836,1.43681 3.92969,1.99414 2.81599,0.55733 6.04297,1.55412 6.04297,5.16211 0,2.40533 -2.14041,5.60352 -7.03906,5.60352 -3.84266,0 -6.24829,-1.46736 -7.62696,-4.16602 l 3.66602,-1.75976 c 0.82133,1.61333 2.25939,2.49414 4.13672,2.49414 1.96533,0 2.93359,-0.93999 2.93359,-2.08399 0,-1.26133 -1.90753,-1.49551 -4.01953,-1.96484 -2.93333,-0.616 -6.01367,-1.55412 -6.01367,-5.16211 0,-2.75733 2.67072,-5.25 6.74805,-5.25 z m 18.41992,0.0293 c 4.31199,0 8.44922,3.25466 8.44922,8.94531 0,5.63199 -4.28393,8.91797 -8.41993,8.91797 -2.34666,0 -4.39889,-0.85162 -5.60156,-2.37695 v 9.91601 h -3.93164 v -25.05078 h 3.93164 v 2.28711 c 1.20267,-1.61333 3.22561,-2.63867 5.57227,-2.63867 z m 18.1875,0 c 2.25866,0 4.25234,0.9083 5.51367,2.4043 v -2.05274 h 3.96094 v 17.16016 h -3.96094 v -2.23047 c -1.26133,1.61333 -3.3136,2.58203 -5.57227,2.58203 -4.13599,0 -8.44726,-3.28598 -8.44726,-8.91797 0,-5.69065 4.16453,-8.94531 8.50586,-8.94531 z m 44.9082,0 c 4.92799,0 8.88867,3.92932 8.88867,8.94531 0,4.92799 -3.96068,8.91797 -8.88867,8.91797 -4.95732,0 -8.88672,-3.98998 -8.88672,-8.91797 0,-5.01599 3.9294,-8.94531 8.88672,-8.94531 z m 47.4043,0 c 4.31199,0 6.80468,2.66804 6.80468,7.33203 v 10.17969 h -4.01953 v -9.76758 c 0,-2.66933 -1.28976,-4.3125 -3.87109,-4.3125 -2.25866,0 -4.01953,1.64274 -4.01953,4.66406 v 9.41602 h -3.95899 v -17.16016 h 3.92969 v 2.11133 c 1.144,-1.496 2.90544,-2.46289 5.13477,-2.46289 z m 17.42383,0 c 4.92799,0 8.88671,3.92932 8.88671,8.94531 0,4.92799 -3.95872,8.91797 -8.88671,8.91797 -4.95733,0 -8.88868,-3.98998 -8.88868,-8.91797 0,-5.01599 3.93135,-8.94531 8.88868,-8.94531 z m 33.49804,0 c 2.25866,0 4.2543,0.9083 5.51563,2.4043 v -2.05274 h 3.95898 v 17.16016 h -3.95898 v -2.23047 c -1.26133,1.61333 -3.31556,2.58203 -5.57422,2.58203 -4.13599,0 -8.44727,-3.28598 -8.44727,-8.91797 0,-5.69065 4.16454,-8.94531 8.50586,-8.94531 z m -131.35547,0.35156 h 3.93164 v 2.55078 c 0.792,-1.70133 2.25907,-2.55078 4.4004,-2.55078 1.26133,0 2.22948,0.29242 3.02148,0.73242 l -1.49609,3.75586 c -0.58667,-0.38133 -1.23296,-0.67578 -2.37696,-0.67578 -2.31733,0 -3.51953,1.23265 -3.51953,4.19531 v 9.15235 h -3.96094 z m 12.64454,0 h 3.92968 v 2.55078 c 0.792,-1.70133 2.25906,-2.55078 4.40039,-2.55078 1.26133,0 2.22949,0.29242 3.02149,0.73242 l -1.4961,3.75586 c -0.58666,-0.38133 -1.23295,-0.67578 -2.37695,-0.67578 -2.31733,0 -3.51953,1.23265 -3.51953,4.19531 v 9.15235 h -3.95898 z m 29.06835,0 h 4.04883 l 3.78321,11.82031 4.3125,-11.82031 h 3.92968 l 4.22461,11.84961 3.92969,-11.84961 h 4.01953 l -6.01367,17.16016 h -3.8125 l -4.3418,-11.88086 -4.45898,11.88086 h -3.90039 z m 64.5625,0 h 4.13672 l 4.42774,12.08594 4.34179,-12.08594 h 4.07813 l -6.45313,17.16016 h -3.99023 z m -136.95703,3.25586 c -2.96266,0 -5.10351,2.34597 -5.10351,5.2793 0,2.96266 2.14085,5.33984 5.10351,5.33984 2.904,0 5.16211,-2.34785 5.16211,-5.33984 0,-2.96266 -2.25811,-5.2793 -5.16211,-5.2793 z m 19.38868,0 c -2.93333,0 -5.19141,2.31664 -5.19141,5.2793 0,2.99199 2.25808,5.33984 5.19141,5.33984 2.96266,0 5.13476,-2.37718 5.13476,-5.33984 0,-2.93333 -2.1721,-5.2793 -5.13476,-5.2793 z m 143.23437,0 c -2.93333,0 -5.19141,2.31664 -5.19141,5.2793 0,2.99199 2.25808,5.33984 5.19141,5.33984 2.96266,0 5.13477,-2.37718 5.13477,-5.33984 0,-2.93333 -2.17211,-5.2793 -5.13477,-5.2793 z m -98.91211,0.11719 c -2.84533,0 -4.98633,2.31671 -4.98633,5.2207 0,2.84533 2.141,5.19336 4.98633,5.19336 2.81599,0 4.98828,-2.34803 4.98828,-5.19336 0,-2.90399 -2.17229,-5.2207 -4.98828,-5.2207 z m 64.82813,0 c -2.84533,0 -4.98633,2.31671 -4.98633,5.2207 0,2.84533 2.141,5.19336 4.98633,5.19336 2.81599,0 4.98632,-2.34803 4.98632,-5.19336 0,-2.90399 -2.17033,-5.2207 -4.98632,-5.2207 z" /><path
       id="rect2-1-5"
       style="fill:#1a1a1a;stroke-width:4.91339;stroke-linecap:square;stroke-linejoin:bevel;stroke-miterlimit:100;paint-order:stroke fill markers"
       d="m -441.18923,-855.85894 c -20.06062,0 -36.21094,16.15032 -36.21094,36.21094 v 168.74414 c 0,20.06062 16.15032,36.21094 36.21094,36.21094 h 168.74414 c 20.06062,0 36.21094,-16.15032 36.21094,-36.21094 V -819.648 c 0,-20.06062 -16.15032,-36.21094 -36.21094,-36.21094 z m 31.47266,29.27149 c 9.68178,0.0183 21.10322,3.38445 33.04297,9.73828 19.68496,10.47553 39.3756,26.36548 77.61914,62.64453 7.62106,7.22958 10.6172,9.97554 11.96289,10.96485 l 0.48828,0.36132 0.50781,-1.07422 c 0.74053,-1.56755 1.58628,-3.73818 2.42774,-6.2246 1.39526,-4.12293 2.17816,-7.4185 3.14453,-13.26172 0.74277,-4.49118 0.837,-4.71398 2.49804,-5.90235 0.96685,-0.69173 2.01313,-0.92471 4.09766,-0.91211 1.54638,0.009 1.81902,0.0415 2.69531,0.32422 1.61118,0.51976 2.56104,1.18278 3.03516,2.11914 l 0.26563,0.52735 -0.26954,3.55664 c -0.1485,1.95622 -0.30104,3.7632 -0.33984,4.01562 -0.11701,0.76144 -1.97991,8.43533 -2.47266,10.18555 -1.03863,3.68917 -2.9238,8.91558 -4.375,12.13086 -0.84611,1.87464 -1.57017,3.64307 -1.57617,3.85156 -0.005,0.17639 2.26515,2.36982 6.19141,5.97852 1.86154,1.71098 3.72068,3.45611 4.13086,3.8789 0.82488,0.85024 2.89842,2.58203 3.09179,2.58203 0.0677,0 0.41922,0.29731 0.78125,0.66016 0.36204,0.36285 1.01922,0.96348 1.46094,1.33398 0.44173,0.37049 1.19502,1.0404 1.67383,1.49024 0.4788,0.44985 1.15621,1.04101 1.50586,1.3125 1.1039,0.85718 2.88559,2.97426 3.44531,4.0957 0.4266,0.85472 0.59975,1.71011 0.59375,2.92578 -0.012,2.2526 -1.00906,4.50077 -2.46875,5.57227 -1.26225,0.92657 -3.36515,1.26585 -4.6914,0.75586 -0.86408,-0.33226 -2.44791,-1.38037 -3.95899,-2.61914 -1.54465,-1.26628 -5.23175,-4.53531 -6.71094,-5.94922 -0.59948,-0.57302 -2.69223,-2.4638 -4.64843,-4.20313 -1.95622,-1.73934 -4.25358,-3.79323 -5.10547,-4.56445 -0.85191,-0.77123 -1.63629,-1.45106 -1.74414,-1.50976 -0.16121,-0.0878 -0.33378,0.074 -0.97461,0.90625 -0.96376,1.25166 -1.56035,2.05824 -2.98438,4.03906 -5.47733,7.61895 -13.82937,15.40553 -22.29101,20.7832 -10.41645,6.62004 -21.62833,10.45906 -34.65039,11.86328 -1.56496,0.16884 -7.79168,0.31275 -9.29297,0.21485 -7.24031,-0.47222 -12.13155,-1.27334 -18.10742,-2.96485 -4.85038,-1.37294 -9.17151,-3.04908 -14.07618,-5.45898 -7.05486,-3.46639 -13.6677,-7.90681 -19.90625,-13.36914 -1.91224,-1.67434 -6.9924,-6.74423 -8.61914,-8.60157 -7.31476,-8.35167 -13.15492,-17.40159 -17.36718,-26.90625 -0.48942,-1.10431 -1.80872,-4.27814 -2.92969,-7.05468 -2.53299,-6.27402 -2.96701,-7.27859 -4.3086,-9.92578 -1.19677,-2.36142 -1.8509,-3.42513 -2.89062,-4.71289 -2.39561,-2.96715 -5.74514,-4.24121 -10.61328,-4.03711 -1.35235,0.0567 -1.63403,0.0342 -2.33008,-0.17774 -0.97998,-0.29846 -1.71139,-0.75466 -2.65234,-1.6582 -0.93668,-0.89944 -1.4399,-1.66781 -1.83008,-2.79297 -0.29574,-0.85569 -0.31284,-1.01208 -0.30274,-2.85547 0.0353,-6.25598 2.30879,-15.35259 5.60547,-22.42969 5.43818,-11.67429 13.37427,-19.83283 24.66016,-25.34961 3.28684,-1.60666 4.82618,-2.13897 8.63086,-2.98437 4.18427,-0.92974 7.42902,-1.3195 10.93164,-1.3125 z m 1.83594,13.88086 c -2.46092,0.005 -3.73972,0.12363 -8.08789,0.74609 -4.17118,0.59712 -5.45549,0.96957 -8.37696,2.42969 -9.97212,4.98395 -16.81172,12.65261 -20.7832,23.30273 -1.09717,2.94244 -1.54917,5.05631 -1.16406,5.44141 0.0757,0.0757 0.35009,0.13672 0.61133,0.13672 1.62854,0 6.26678,1.89065 8.48632,3.45898 1.25554,0.88715 3.08614,2.69525 4.01172,3.96289 2.35764,3.22897 4.92896,8.42015 7.94336,16.04102 2.54022,6.4221 3.13197,7.87371 4.03125,9.86719 2.19449,4.86469 5.00468,9.94665 7.45508,13.48242 7.00152,10.1028 14.55393,17.69081 23.60351,23.7168 9.10962,6.06596 19.25617,10.05378 29.25391,11.49609 1.8989,0.27395 4.64268,0.56269 6.61524,0.69531 2.52681,0.16987 6.3329,-0.0636 11.33984,-0.69531 6.62716,-0.83608 9.88142,-1.60719 14.83008,-3.50781 4.86335,-1.86789 8.2969,-3.63516 14.3125,-7.37305 2.26834,-1.40946 3.8253,-2.67543 8.14062,-6.62109 3.34598,-3.05936 7.11662,-7.11719 8.46485,-9.10743 0.4916,-0.72568 1.37208,-1.9499 1.95703,-2.72265 1.23343,-1.62948 1.85895,-2.62692 1.85937,-2.96289 1.9e-4,-0.15746 -0.82084,-1.04841 -2.4375,-2.64258 -6.33943,-6.25121 -32.55231,-30.84644 -39.55664,-37.11523 -0.53478,-0.47863 -2.21208,-1.90796 -3.72656,-3.17579 -1.51449,-1.26783 -3.88906,-3.26906 -5.27734,-4.44726 -15.78073,-13.39262 -30.43687,-23.43566 -41.07422,-28.14649 -5.96876,-2.64329 -11.07415,-4.44966 -15.10157,-5.34179 -3.59907,-0.79724 -4.621,-0.92397 -7.33007,-0.91797 z m -14.46289,16.74023 c 1.24758,0 1.37027,0.0209 2.07226,0.35742 1.36149,0.65269 2.25244,1.57209 3.0332,3.12696 1.1055,2.20152 1.16024,4.70191 0.14844,6.77734 -0.50011,1.02582 -1.93135,2.45796 -2.95508,2.95703 -1.18797,0.5792 -2.70841,0.59724 -3.95703,0.0449 -1.30108,-0.57553 -2.39443,-1.71908 -3.23242,-3.38086 -1.7957,-3.56103 -0.59199,-7.83719 2.6543,-9.43359 0.90069,-0.44322 0.92724,-0.44922 2.23633,-0.44922 z m -25.40625,120.49805 c 3.49065,0 5.68976,1.34883 7.00976,3.54883 l -3.37305,1.70117 c -0.70399,-1.20266 -1.99405,-1.96484 -3.63671,-1.96484 -1.87733,0 -2.75782,0.87965 -2.75782,1.84765 0,1.144 1.34836,1.43681 3.92969,1.99414 2.81599,0.55733 6.04297,1.55412 6.04297,5.16211 0,2.40533 -2.14041,5.60352 -7.03906,5.60352 -3.84266,0 -6.24829,-1.46736 -7.62696,-4.16602 l 3.66602,-1.75976 c 0.82133,1.61333 2.25939,2.49414 4.13672,2.49414 1.96533,0 2.93359,-0.93999 2.93359,-2.08399 0,-1.26133 -1.90753,-1.49551 -4.01953,-1.96484 -2.93333,-0.616 -6.01367,-1.55412 -6.01367,-5.16211 0,-2.75733 2.67072,-5.25 6.74805,-5.25 z m 18.41992,0.0293 c 4.31199,0 8.44922,3.25466 8.44922,8.94531 0,5.63199 -4.28393,8.91797 -8.41993,8.91797 -2.34666,0 -4.39889,-0.85162 -5.60156,-2.37695 v 9.91601 h -3.93164 v -25.05078 h 3.93164 v 2.28711 c 1.20267,-1.61333 3.22561,-2.63867 5.57227,-2.63867 z m 18.1875,0 c 2.25866,0 4.25234,0.9083 5.51367,2.4043 v -2.05274 h 3.96094 v 17.16016 h -3.96094 v -2.23047 c -1.26133,1.61333 -3.3136,2.58203 -5.57227,2.58203 -4.13599,0 -8.44726,-3.28598 -8.44726,-8.91797 0,-5.69065 4.16453,-8.94531 8.50586,-8.94531 z m 44.9082,0 c 4.92799,0 8.88867,3.92932 8.88867,8.94531 0,4.92799 -3.96068,8.91797 -8.88867,8.91797 -4.95732,0 -8.88672,-3.98998 -8.88672,-8.91797 0,-5.01599 3.9294,-8.94531 8.88672,-8.94531 z m 47.4043,0 c 4.31199,0 6.80468,2.66804 6.80468,7.33203 v 10.17969 h -4.01953 v -9.76758 c 0,-2.66933 -1.28976,-4.3125 -3.87109,-4.3125 -2.25866,0 -4.01953,1.64274 -4.01953,4.66406 v 9.41602 h -3.95899 v -17.16016 h 3.92969 v 2.11133 c 1.144,-1.496 2.90544,-2.46289 5.13477,-2.46289 z m 17.42383,0 c 4.92799,0 8.88671,3.92932 8.88671,8.94531 0,4.92799 -3.95872,8.91797 -8.88671,8.91797 -4.95733,0 -8.88868,-3.98998 -8.88868,-8.91797 0,-5.01599 3.93135,-8.94531 8.88868,-8.94531 z m 33.49804,0 c 2.25866,0 4.2543,0.9083 5.51563,2.4043 v -2.05274 h 3.95898 v 17.16016 h -3.95898 v -2.23047 c -1.26133,1.61333 -3.31556,2.58203 -5.57422,2.58203 -4.13599,0 -8.44727,-3.28598 -8.44727,-8.91797 0,-5.69065 4.16454,-8.94531 8.50586,-8.94531 z m -131.35547,0.35156 h 3.93164 v 2.55078 c 0.792,-1.70133 2.25907,-2.55078 4.4004,-2.55078 1.26133,0 2.22948,0.29242 3.02148,0.73242 l -1.49609,3.75586 c -0.58667,-0.38133 -1.23296,-0.67578 -2.37696,-0.67578 -2.31733,0 -3.51953,1.23265 -3.51953,4.19531 v 9.15235 h -3.96094 z m 12.64454,0 h 3.92968 v 2.55078 c 0.792,-1.70133 2.25906,-2.55078 4.40039,-2.55078 1.26133,0 2.22949,0.29242 3.02149,0.73242 l -1.4961,3.75586 c -0.58666,-0.38133 -1.23295,-0.67578 -2.37695,-0.67578 -2.31733,0 -3.51953,1.23265 -3.51953,4.19531 v 9.15235 h -3.95898 z m 29.06835,0 h 4.04883 l 3.78321,11.82031 4.3125,-11.82031 h 3.92968 l 4.22461,11.84961 3.92969,-11.84961 h 4.01953 l -6.01367,17.16016 h -3.8125 l -4.3418,-11.88086 -4.45898,11.88086 h -3.90039 z m 64.5625,0 h 4.13672 l 4.42774,12.08594 4.34179,-12.08594 h 4.07813 l -6.45313,17.16016 h -3.99023 z m -136.95703,3.25586 c -2.96266,0 -5.10351,2.34597 -5.10351,5.2793 0,2.96266 2.14085,5.33984 5.10351,5.33984 2.904,0 5.16211,-2.34785 5.16211,-5.33984 0,-2.96266 -2.25811,-5.2793 -5.16211,-5.2793 z m 19.38868,0 c -2.93333,0 -5.19141,2.31664 -5.19141,5.2793 0,2.99199 2.25808,5.33984 5.19141,5.33984 2.96266,0 5.13476,-2.37718 5.13476,-5.33984 0,-2.93333 -2.1721,-5.2793 -5.13476,-5.2793 z m 143.23437,0 c -2.93333,0 -5.19141,2.31664 -5.19141,5.2793 0,2.99199 2.25808,5.33984 5.19141,5.33984 2.96266,0 5.13477,-2.37718 5.13477,-5.33984 0,-2.93333 -2.17211,-5.2793 -5.13477,-5.2793 z m -98.91211,0.11719 c -2.84533,0 -4.98633,2.31671 -4.98633,5.2207 0,2.84533 2.141,5.19336 4.98633,5.19336 2.81599,0 4.98828,-2.34803 4.98828,-5.19336 0,-2.90399 -2.17229,-5.2207 -4.98828,-5.2207 z m 64.82813,0 c -2.84533,0 -4.98633,2.31671 -4.98633,5.2207 0,2.84533 2.141,5.19336 4.98633,5.19336 2.81599,0 4.98632,-2.34803 4.98632,-5.19336 0,-2.90399 -2.17033,-5.2207 -4.98632,-5.2207 z" /><circle
       style="fill:#000000;stroke-width:4.91339;stroke-linecap:square;stroke-linejoin:bevel;stroke-miterlimit:100;paint-order:stroke fill markers"
       id="path1"
       cx="36.943432"
       cy="248.16125"
       r="195.11774" /><path
       id="rect1"
       style="fill:#f9f9f9;stroke-width:4.91339;stroke-linecap:square;stroke-linejoin:bevel;stroke-miterlimit:100;paint-order:stroke fill markers"
       d="M -1001.4687 -815.04493 C -1019.8469 -815.04493 -1034.6426 -800.25117 -1034.6426 -781.87305 L -1034.6426 -581.65039 C -1034.6426 -563.27228 -1019.8469 -548.47657 -1001.4687 -548.47657 L -801.24609 -548.47657 C -782.86797 -548.47657 -768.07226 -563.27228 -768.07226 -581.65039 L -768.07226 -781.87305 C -768.07226 -800.25117 -782.86797 -815.04493 -801.24609 -815.04493 L -1001.4687 -815.04493 z M -985.73046 -802.34375 L -816.98632 -802.34375 C -796.92572 -802.34375 -780.77539 -786.19342 -780.77539 -766.13282 L -780.77539 -597.38868 C -780.77539 -577.32808 -796.92572 -561.17774 -816.98632 -561.17774 L -985.73046 -561.17774 C -1005.7911 -561.17774 -1021.9414 -577.32808 -1021.9414 -597.38868 L -1021.9414 -766.13282 C -1021.9414 -786.19342 -1005.791 -802.34375 -985.73046 -802.34375 z M -954.25781 -773.07227 C -957.76042 -773.07927 -961.00518 -772.68951 -965.18945 -771.75977 C -968.99412 -770.91437 -970.53347 -770.38205 -973.82031 -768.77539 C -985.10619 -763.25862 -993.04237 -755.10006 -998.48046 -743.42578 C -1001.7771 -736.34869 -1004.0509 -727.25207 -1004.0859 -720.9961 C -1004.096 -719.15271 -1004.0789 -718.99632 -1003.7832 -718.14063 C -1003.393 -717.01547 -1002.8898 -716.2471 -1001.9531 -715.34766 C -1001.0121 -714.44412 -1000.2808 -713.98792 -999.30078 -713.68946 C -998.60478 -713.47752 -998.323 -713.45502 -996.9707 -713.51172 C -992.1025 -713.71582 -988.75301 -712.44176 -986.35742 -709.47461 C -985.31768 -708.18685 -984.66356 -707.12314 -983.46679 -704.76172 C -982.1252 -702.11453 -981.69119 -701.10995 -979.1582 -694.83594 C -978.03723 -692.0594 -976.71793 -688.88556 -976.22851 -687.78125 C -972.01625 -678.2766 -966.17608 -669.22666 -958.86132 -660.875 C -957.23458 -659.01766 -952.15442 -653.94778 -950.24218 -652.27344 C -944.00364 -646.81112 -937.39079 -642.37069 -930.33593 -638.9043 C -925.43127 -636.4944 -921.11014 -634.81825 -916.25976 -633.44532 C -910.2839 -631.75381 -905.39264 -630.95269 -898.15234 -630.48047 C -896.65105 -630.38257 -890.42433 -630.52648 -888.85937 -630.69532 C -875.83732 -632.09953 -864.62542 -635.93856 -854.20898 -642.5586 C -845.74735 -647.93626 -837.39529 -655.72286 -831.91796 -663.3418 C -830.49394 -665.32262 -829.89735 -666.1292 -828.93359 -667.38086 C -828.29276 -668.21311 -828.12019 -668.37491 -827.95898 -668.28711 C -827.85113 -668.22841 -827.06675 -667.54858 -826.21484 -666.77735 C -825.36295 -666.00613 -823.06559 -663.95223 -821.10937 -662.21289 C -819.15317 -660.47357 -817.06041 -658.58279 -816.46093 -658.00977 C -814.98174 -656.59586 -811.29464 -653.32683 -809.75 -652.06055 C -808.23892 -650.82178 -806.65509 -649.77367 -805.79101 -649.44141 C -804.46476 -648.93142 -802.36185 -649.2707 -801.0996 -650.19727 C -799.63992 -651.26877 -798.64285 -653.51694 -798.63085 -655.76953 C -798.62485 -656.9852 -798.798 -657.8406 -799.2246 -658.69532 C -799.78432 -659.81675 -801.56602 -661.93384 -802.66992 -662.79102 C -803.01957 -663.06251 -803.69698 -663.65367 -804.17578 -664.10352 C -804.65459 -664.55336 -805.40787 -665.22326 -805.8496 -665.59375 C -806.29132 -665.96425 -806.9485 -666.56489 -807.31054 -666.92774 C -807.67257 -667.29059 -808.02409 -667.58789 -808.09179 -667.58789 C -808.28516 -667.58789 -810.35871 -669.31969 -811.18359 -670.16993 C -811.59377 -670.59271 -813.45291 -672.33785 -815.31445 -674.04883 C -819.2407 -677.65753 -821.51085 -679.85096 -821.50585 -680.02735 C -821.49985 -680.23584 -820.77579 -682.00427 -819.92968 -683.87891 C -818.47848 -687.09419 -816.59331 -692.3206 -815.55468 -696.00977 C -815.06193 -697.75999 -813.19904 -705.43388 -813.08203 -706.19532 C -813.04323 -706.44774 -812.89068 -708.25472 -812.74218 -710.21094 L -812.47265 -713.76758 L -812.73828 -714.29493 C -813.2124 -715.23128 -814.16225 -715.89431 -815.77343 -716.41407 C -816.64972 -716.69679 -816.92237 -716.72928 -818.46875 -716.73828 C -820.55327 -716.75088 -821.59955 -716.5179 -822.5664 -715.82618 C -824.22744 -714.63781 -824.32168 -714.41501 -825.06445 -709.92383 C -826.03082 -704.08062 -826.81372 -700.78504 -828.20898 -696.66211 C -829.05044 -694.17569 -829.89618 -692.00505 -830.63671 -690.4375 L -831.14453 -689.36328 L -831.63281 -689.72461 C -832.9785 -690.71392 -835.97465 -693.45988 -843.5957 -700.68946 C -881.8392 -736.96847 -901.5299 -752.85847 -921.21484 -763.33399 C -933.15458 -769.68781 -944.57604 -773.05397 -954.25781 -773.07227 z M -952.42187 -759.19141 C -949.7128 -759.19741 -948.69086 -759.07068 -945.09179 -758.27344 C -941.06438 -757.38131 -935.95898 -755.57493 -929.99023 -752.93164 C -919.35289 -748.22082 -904.69672 -738.17777 -888.91601 -724.78516 C -887.52773 -723.60696 -885.15316 -721.60572 -883.63867 -720.33789 C -882.12419 -719.07007 -880.44688 -717.64074 -879.9121 -717.16211 C -872.90778 -710.89333 -846.69489 -686.29808 -840.35546 -680.04688 C -838.73881 -678.45271 -837.91777 -677.56176 -837.91796 -677.4043 C -837.91838 -677.06833 -838.54391 -676.07089 -839.77734 -674.44141 C -840.36229 -673.66866 -841.24277 -672.44443 -841.73437 -671.71875 C -843.0826 -669.72852 -846.85324 -665.67069 -850.19921 -662.61133 C -854.51453 -658.66568 -856.0715 -657.3997 -858.33984 -655.99024 C -864.35543 -652.25235 -867.78899 -650.48508 -872.65234 -648.61719 C -877.60099 -646.71657 -880.85526 -645.94546 -887.48242 -645.10938 C -892.48935 -644.47767 -896.29545 -644.2442 -898.82226 -644.41407 C -900.79482 -644.54669 -903.5386 -644.83543 -905.4375 -645.10938 C -915.43523 -646.55169 -925.58179 -650.53952 -934.6914 -656.60547 C -943.74097 -662.63146 -951.2934 -670.21948 -958.29492 -680.32227 C -960.74531 -683.85804 -963.55551 -688.94001 -965.75 -693.80469 C -966.64927 -695.79817 -967.24103 -697.24978 -969.78125 -703.67188 C -972.79564 -711.29274 -975.36697 -716.48393 -977.7246 -719.71289 C -978.65018 -720.98053 -980.48078 -722.78864 -981.73632 -723.67578 C -983.95586 -725.24411 -988.59415 -727.13477 -990.22265 -727.13477 C -990.48385 -727.13477 -990.75798 -727.19579 -990.83398 -727.27149 C -991.21918 -727.65659 -990.76712 -729.77046 -989.66992 -732.71289 C -985.69842 -743.363 -978.85882 -751.03168 -968.88671 -756.01563 C -965.96525 -757.47575 -964.68094 -757.8482 -960.50976 -758.44532 C -956.16159 -759.06778 -954.88279 -759.18641 -952.42187 -759.19141 z M -966.88476 -742.45118 C -968.19385 -742.45118 -968.2204 -742.44518 -969.12109 -742.00196 C -972.36738 -740.40556 -973.57108 -736.12939 -971.77539 -732.56836 C -970.9374 -730.90658 -969.84404 -729.76303 -968.54296 -729.1875 C -967.29434 -728.63516 -965.7739 -728.65323 -964.58593 -729.23243 C -963.5622 -729.73149 -962.13096 -731.16364 -961.63085 -732.18946 C -960.61906 -734.26488 -960.67379 -736.76528 -961.77929 -738.9668 C -962.56005 -740.52167 -963.45101 -741.44106 -964.8125 -742.09375 C -965.51448 -742.43027 -965.63718 -742.45118 -966.88476 -742.45118 z M -992.29101 -621.95313 C -996.36831 -621.95313 -999.03906 -619.46046 -999.03906 -616.70313 C -999.03906 -613.09514 -995.95878 -612.15702 -993.02539 -611.54102 C -990.91339 -611.07169 -989.00585 -610.8375 -989.00585 -609.57618 C -989.00585 -608.43218 -989.97415 -607.49219 -991.93945 -607.49219 C -993.81675 -607.49219 -995.25487 -608.373 -996.07617 -609.98633 L -999.74218 -608.22657 C -998.36358 -605.52791 -995.95783 -604.06055 -992.11523 -604.06055 C -987.21653 -604.06055 -985.07617 -607.25874 -985.07617 -609.66407 C -985.07617 -613.27205 -988.30314 -614.26885 -991.11914 -614.82618 C -993.70043 -615.3835 -995.04882 -615.67632 -995.04882 -616.82032 C -995.04882 -617.78831 -994.16831 -618.66797 -992.29101 -618.66797 C -990.64831 -618.66797 -989.35819 -617.90579 -988.65429 -616.70313 L -985.28125 -618.4043 C -986.60123 -620.6043 -988.80031 -621.95313 -992.29101 -621.95313 z M -973.87109 -621.92383 C -976.21775 -621.92383 -978.24069 -620.89849 -979.44335 -619.28516 L -979.44335 -621.57227 L -983.375 -621.57227 L -983.375 -596.52149 L -979.44335 -596.52149 L -979.44335 -606.4375 C -978.24069 -604.91217 -976.18845 -604.06055 -973.84179 -604.06055 C -969.7058 -604.06055 -965.42187 -607.34653 -965.42187 -612.97852 C -965.42187 -618.66916 -969.5591 -621.92383 -973.87109 -621.92383 z M -955.68359 -621.92383 C -960.02491 -621.92383 -964.18945 -618.66916 -964.18945 -612.97852 C -964.18945 -607.34653 -959.87817 -604.06055 -955.74218 -604.06055 C -953.48351 -604.06055 -951.43125 -605.02925 -950.16992 -606.64258 L -950.16992 -604.41211 L -946.20898 -604.41211 L -946.20898 -621.57227 L -950.16992 -621.57227 L -950.16992 -619.51953 C -951.43125 -621.01553 -953.42493 -621.92383 -955.68359 -621.92383 z M -910.77539 -621.92383 C -915.7327 -621.92383 -919.6621 -617.9945 -919.6621 -612.97852 C -919.6621 -608.05053 -915.7327 -604.06055 -910.77539 -604.06055 C -905.8474 -604.06055 -901.88671 -608.05053 -901.88671 -612.97852 C -901.88671 -617.9945 -905.8474 -621.92383 -910.77539 -621.92383 z M -863.37109 -621.92383 C -865.60042 -621.92383 -867.36186 -620.95694 -868.50585 -619.46094 L -868.50585 -621.57227 L -872.43554 -621.57227 L -872.43554 -604.41211 L -868.47656 -604.41211 L -868.47656 -613.82813 C -868.47656 -616.84945 -866.71568 -618.49219 -864.45703 -618.49219 C -861.8757 -618.49219 -860.58593 -616.84902 -860.58593 -614.17969 L -860.58593 -604.41211 L -856.5664 -604.41211 L -856.5664 -614.5918 C -856.5664 -619.25579 -859.0591 -621.92383 -863.37109 -621.92383 z M -845.94726 -621.92383 C -850.90459 -621.92383 -854.83593 -617.9945 -854.83593 -612.97852 C -854.83593 -608.05053 -850.90459 -604.06055 -845.94726 -604.06055 C -841.01928 -604.06055 -837.06054 -608.05053 -837.06054 -612.97852 C -837.06054 -617.9945 -841.01928 -621.92383 -845.94726 -621.92383 z M -812.44921 -621.92383 C -816.79053 -621.92383 -820.95507 -618.66916 -820.95507 -612.97852 C -820.95507 -607.34653 -816.64379 -604.06055 -812.50781 -604.06055 C -810.24915 -604.06055 -808.19492 -605.02925 -806.93359 -606.64258 L -806.93359 -604.41211 L -802.9746 -604.41211 L -802.9746 -621.57227 L -806.93359 -621.57227 L -806.93359 -619.51953 C -808.19492 -621.01553 -810.19056 -621.92383 -812.44921 -621.92383 z M -943.80468 -621.57227 L -943.80468 -604.41211 L -939.84375 -604.41211 L -939.84375 -613.56446 C -939.84375 -616.52711 -938.64154 -617.75977 -936.32421 -617.75977 C -935.18021 -617.75977 -934.53393 -617.46532 -933.94726 -617.08399 L -932.45117 -620.83985 C -933.24317 -621.27985 -934.21132 -621.57227 -935.47265 -621.57227 C -937.61398 -621.57227 -939.08104 -620.72282 -939.87304 -619.02149 L -939.87304 -621.57227 L -943.80468 -621.57227 z M -931.16015 -621.57227 L -931.16015 -604.41211 L -927.20117 -604.41211 L -927.20117 -613.56446 C -927.20117 -616.52711 -925.99896 -617.75977 -923.68164 -617.75977 C -922.53764 -617.75977 -921.89134 -617.46532 -921.30468 -617.08399 L -919.80859 -620.83985 C -920.60059 -621.27985 -921.56874 -621.57227 -922.83007 -621.57227 C -924.9714 -621.57227 -926.43846 -620.72282 -927.23046 -619.02149 L -927.23046 -621.57227 L -931.16015 -621.57227 z M -902.09179 -621.57227 L -896.37109 -604.41211 L -892.4707 -604.41211 L -888.01171 -616.29297 L -883.66992 -604.41211 L -879.85742 -604.41211 L -873.84375 -621.57227 L -877.86328 -621.57227 L -881.79296 -609.72266 L -886.01757 -621.57227 L -889.94726 -621.57227 L -894.25976 -609.75196 L -898.04296 -621.57227 L -902.09179 -621.57227 z M -837.52929 -621.57227 L -830.98828 -604.41211 L -826.99804 -604.41211 L -820.54492 -621.57227 L -824.62304 -621.57227 L -828.96484 -609.48633 L -833.39257 -621.57227 L -837.52929 -621.57227 z M -974.48632 -618.31641 C -971.58233 -618.31641 -969.32421 -615.99977 -969.32421 -613.03711 C -969.32421 -610.04513 -971.58233 -607.69727 -974.48632 -607.69727 C -977.44898 -607.69727 -979.58984 -610.07446 -979.58984 -613.03711 C -979.58984 -615.97044 -977.44898 -618.31641 -974.48632 -618.31641 z M -955.09765 -618.31641 C -952.13499 -618.31641 -949.96289 -615.97044 -949.96289 -613.03711 C -949.96289 -610.07446 -952.13499 -607.69727 -955.09765 -607.69727 C -958.03098 -607.69727 -960.28906 -610.04513 -960.28906 -613.03711 C -960.28906 -615.99977 -958.03098 -618.31641 -955.09765 -618.31641 z M -811.86328 -618.31641 C -808.90062 -618.31641 -806.72851 -615.97044 -806.72851 -613.03711 C -806.72851 -610.07446 -808.90062 -607.69727 -811.86328 -607.69727 C -814.7966 -607.69727 -817.05468 -610.04513 -817.05468 -613.03711 C -817.05468 -615.99977 -814.7966 -618.31641 -811.86328 -618.31641 z M -910.77539 -618.19922 C -907.9594 -618.19922 -905.7871 -615.88251 -905.7871 -612.97852 C -905.7871 -610.13319 -907.9594 -607.78516 -910.77539 -607.78516 C -913.62071 -607.78516 -915.76171 -610.13319 -915.76171 -612.97852 C -915.76171 -615.88251 -913.62071 -618.19922 -910.77539 -618.19922 z M -845.94726 -618.19922 C -843.13127 -618.19922 -840.96093 -615.88251 -840.96093 -612.97852 C -840.96093 -610.13319 -843.13127 -607.78516 -845.94726 -607.78516 C -848.79259 -607.78516 -850.93359 -610.13319 -850.93359 -612.97852 C -850.93359 -615.88251 -848.79259 -618.19922 -845.94726 -618.19922 z " /><path
       id="rect1-7"
       style="fill:#333333;stroke-width:4.91339;stroke-linecap:square;stroke-linejoin:bevel;stroke-miterlimit:100;paint-order:stroke fill markers"
       d="m -94.615732,-643.35774 c -18.378198,0 -33.173898,14.79377 -33.173898,33.17189 v 200.22266 c 0,18.37811 14.7957,33.17382 33.173898,33.17382 H 105.60687 c 18.3781,0 33.1738,-14.79571 33.1738,-33.17382 v -200.22266 c 0,-18.37812 -14.7957,-33.17189 -33.1738,-33.17189 z m 15.7383,12.70119 h 168.7441 c 20.060602,0 36.210902,16.15033 36.210902,36.21093 v 168.74414 c 0,20.0606 -16.1503,36.21094 -36.210902,36.21094 h -168.7441 c -20.0607,0 -36.210998,-16.15034 -36.210998,-36.21094 v -168.74414 c 0,-20.0606 16.150398,-36.21093 36.210998,-36.21093 z m 31.4726,29.27148 c -3.5026,-0.007 -6.7474,0.38276 -10.9316,1.3125 -3.8047,0.8454 -5.344,1.37772 -8.6309,2.98438 -11.2859,5.51677 -19.222,13.67533 -24.6601,25.34961 -3.2967,7.07709 -5.5705,16.17371 -5.6055,22.42968 -0.01,1.84339 0.01,1.99978 0.3027,2.85547 0.3902,1.12516 0.8934,1.89353 1.8301,2.79297 0.941,0.90354 1.6723,1.35974 2.6523,1.6582 0.696,0.21194 0.9778,0.23444 2.3301,0.17774 4.8682,-0.2041 8.2177,1.06996 10.6133,4.03711 1.0397,1.28776 1.6939,2.35147 2.8906,4.71289 1.3416,2.64719 1.7756,3.65177 4.3086,9.92578 1.121,2.77654 2.4403,5.95038 2.9297,7.05469 4.2123,9.50465 10.0524,18.55459 17.3672,26.90625 1.6268,1.85734 6.7069,6.92722 8.6192,8.60156 6.2385,5.46232 12.8513,9.90275 19.9062,13.36914 4.9046,2.4099 9.2257,4.08605 14.0761004,5.45898 5.9759,1.69151 10.8671,2.49263 18.1074,2.96485 1.5012996,0.0979 7.7280996,-0.046 9.2929996,-0.21485 13.0221,-1.40421 24.234,-5.24324 34.6504,-11.86328 8.4616,-5.37766 16.8137,-13.16426 22.291,-20.7832 1.424,-1.98082 2.0206,-2.7874 2.9844,-4.03906 0.6408,-0.83225 0.8134,-0.99405 0.9746,-0.90625 0.1079,0.0587 0.8922,0.73853 1.7441,1.50976 0.8519,0.77122 3.1493,2.82512 5.1055,4.56446 1.9562,1.73932 4.049,3.6301 4.6485,4.20312 1.4791,1.41391 5.1662,4.68294 6.7109,5.94922 1.5111,1.23877 3.094902,2.28688 3.959002,2.61914 1.3262,0.50999 3.4291,0.17071 4.6914,-0.75586 1.4597,-1.0715 2.4567,-3.31967 2.4687,-5.57226 0.01,-1.21567 -0.1671,-2.07107 -0.5937,-2.92579 -0.5597,-1.12143 -2.3414,-3.23852 -3.4453,-4.0957 -0.3497,-0.27149 -1.0271,-0.86265 -1.5059,-1.3125 -0.4788,-0.44984 -1.2321,-1.11974 -1.6738,-1.49023 -0.4417,-0.3705 -1.098902,-0.97114 -1.461002,-1.33399 -0.362,-0.36285 -0.7135,-0.66015 -0.7812,-0.66015 -0.1934,0 -2.2669,-1.7318 -3.0918,-2.58204 -0.4102,-0.42278 -2.2693,-2.16792 -4.1309,-3.8789 -3.9262,-3.6087 -6.1964,-5.80213 -6.1914,-5.97852 0.01,-0.20849 0.7301,-1.97692 1.5762,-3.85156 1.4512,-3.21528 3.3364,-8.44169 4.375,-12.13086 0.4928,-1.75022 2.3556,-9.42411 2.4727,-10.18555 0.039,-0.25242 0.1913,-2.0594 0.3398,-4.01562 l 0.2695,-3.55664 -0.2656,-0.52735 c -0.4741,-0.93635 -1.424,-1.59938 -3.0351,-2.11914 -0.8763,-0.28272 -1.149,-0.31521 -2.6954,-0.32421 -2.0845,-0.0126 -3.1308,0.22038 -4.0976,0.9121 -1.6611,1.18837 -1.7553,1.41117 -2.4981,5.90235 -0.9663,5.84321 -1.7492,9.13879 -3.1445,13.26172 -0.8415,2.48642 -1.6872,4.65706 -2.4277,6.22461 l -0.5078,1.07422 -0.4883,-0.36133 c -1.3457,-0.98931 -4.3419,-3.73527 -11.9629,-10.96485 -38.2435,-36.27901 -57.9341996,-52.16901 -77.6192,-62.64453 -11.9397,-6.35382 -23.3611,-9.71998 -33.0429,-9.73828 z m 1.836,13.88086 c 2.709,-0.006 3.731,0.12073 7.33,0.91797 4.0275,0.89213 9.1329,2.69851 15.1016,5.3418 10.6373,4.71082 25.2935004,14.75387 41.0742,28.14648 1.3883,1.1782 3.7628,3.17944 5.2773,4.44727 1.5145,1.26782 3.1918,2.69715 3.7266,3.17578 7.0043,6.26878 33.2172,30.86403 39.5566,37.11523 1.6167,1.59417 2.4377,2.48512 2.4375,2.64258 -4e-4,0.33597 -0.6259,1.33341 -1.8594,2.96289 -0.5849,0.77275 -1.4654,1.99698 -1.957,2.72266 -1.3482,1.99023 -5.1189,6.04806 -8.4648,9.10742 -4.3153,3.94565 -5.8723,5.21163 -8.1407,6.62109 -6.0155,3.73789 -9.4491,5.50516 -14.3125,7.37305 -4.9486,1.90062 -8.2029,2.67173 -14.83,3.50781 -5.007,0.63171 -8.8131,0.86518 -11.3398996,0.69531 -1.9725,-0.13262 -4.7163,-0.42136 -6.6152,-0.69531 -9.9977,-1.44231 -20.1443004,-5.43014 -29.2539004,-11.49609 -9.0495,-6.02599 -16.602,-13.61401 -23.6035,-23.7168 -2.4504,-3.53577 -5.2606,-8.61774 -7.4551,-13.48242 -0.8992,-1.99348 -1.491,-3.44509 -4.0312,-9.86719 -3.0144,-7.62086 -5.5857,-12.81205 -7.9434,-16.04101 -0.9255,-1.26764 -2.7561,-3.07575 -4.0117,-3.96289 -2.2195,-1.56833 -6.8578,-3.45899 -8.4863,-3.45899 -0.2612,0 -0.5353,-0.061 -0.6113,-0.13672 -0.3852,-0.3851 0.067,-2.49897 1.164,-5.4414 3.9715,-10.65011 10.8111,-18.31879 20.7832,-23.30274 2.9215,-1.46012 4.2058,-1.83257 8.377,-2.42969 4.3481,-0.62246 5.6269,-0.74109 8.0879,-0.74609 z m -14.4629,16.74023 c -1.3091,0 -1.3357,0.006 -2.2364,0.44922 -3.2463,1.5964 -4.4499,5.87257 -2.6543,9.4336 0.838,1.66178 1.9314,2.80533 3.2325,3.38086 1.2486,0.55234 2.769,0.53427 3.957,-0.0449 1.0237,-0.49906 2.455,-1.93121 2.9551,-2.95703 1.0118,-2.07542 0.957,-4.57582 -0.1485,-6.77734 -0.7807,-1.55487 -1.6717,-2.47426 -3.0332,-3.12695 -0.702,-0.33652 -0.8247,-0.35743 -2.0722,-0.35743 z m -25.4063,120.49805 c -4.0773,0 -6.748,2.49267 -6.748,5.25 0,3.60799 3.0802,4.54611 6.0136,5.16211 2.112,0.46933 4.0196,0.70352 4.0196,1.96484 0,1.144 -0.9683,2.08399 -2.9336,2.08399 -1.8773,0 -3.3154,-0.88081 -4.1367,-2.49414 l -3.666,1.75976 c 1.3786,2.69866 3.7843,4.16602 7.6269,4.16602 4.8987,0 7.0391,-3.19819 7.0391,-5.60352 0,-3.60798 -3.227,-4.60478 -6.043,-5.16211 -2.5813,-0.55732 -3.9297,-0.85014 -3.9297,-1.99414 0,-0.96799 0.8805,-1.84765 2.7578,-1.84765 1.6427,0 2.9328,0.76218 3.6367,1.96484 l 3.3731,-1.70117 c -1.32,-2.2 -3.5191,-3.54883 -7.0098,-3.54883 z m 18.4199,0.0293 c -2.3466,0 -4.3696,1.02534 -5.5722,2.63867 v -2.28711 h -3.9317 v 25.05078 h 3.9317 v -9.91601 c 1.2026,1.52533 3.2549,2.37695 5.6015,2.37695 4.136,0 8.42,-3.28598 8.42,-8.91797 0,-5.69064 -4.1373,-8.94531 -8.4493,-8.94531 z m 18.1875,0 c -4.3413,0 -8.5058,3.25467 -8.5058,8.94531 0,5.63199 4.3113,8.91797 8.4473,8.91797 2.2586,0 4.3109,-0.9687 5.5722,-2.58203 v 2.23047 h 3.961 v -17.16016 h -3.961 v 2.05274 c -1.2613,-1.496 -3.255,-2.4043 -5.5137,-2.4043 z m 44.9082004,0 c -4.9573,0 -8.8867004,3.92933 -8.8867004,8.94531 0,4.92799 3.9294004,8.91797 8.8867004,8.91797 4.928,0 8.8887,-3.98998 8.8887,-8.91797 0,-5.01598 -3.9607,-8.94531 -8.8887,-8.94531 z m 47.4042996,0 c -2.2293,0 -3.9908,0.96689 -5.1348,2.46289 v -2.11133 h -3.9297 v 17.16016 h 3.959 v -9.41602 c 0,-3.02132 1.7609,-4.66406 4.0196,-4.66406 2.5813,0 3.8711,1.64317 3.8711,4.3125 v 9.76758 h 4.0195 v -10.17969 c 0,-4.66399 -2.4927,-7.33203 -6.8047,-7.33203 z m 17.4238,0 c -4.9573,0 -8.8886,3.92933 -8.8886,8.94531 0,4.92799 3.9313,8.91797 8.8886,8.91797 4.928,0 8.8867,-3.98998 8.8867,-8.91797 0,-5.01598 -3.9587,-8.94531 -8.8867,-8.94531 z m 33.4981,0 c -4.3413,0 -8.5059,3.25467 -8.5059,8.94531 0,5.63199 4.3113,8.91797 8.4473,8.91797 2.2586,0 4.3129,-0.9687 5.5742,-2.58203 v 2.23047 h 3.959002 v -17.16016 h -3.959002 v 2.05274 c -1.2613,-1.496 -3.257,-2.4043 -5.5156,-2.4043 z m -131.3554,0.35156 v 17.16016 h 3.9609 v -9.15235 c 0,-2.96265 1.2022,-4.19531 3.5195,-4.19531 1.144,0 1.7903,0.29445 2.377,0.67578 l 1.4961,-3.75586 c -0.792,-0.44 -1.7602,-0.73242 -3.0215,-0.73242 -2.1413,0 -3.6084,0.84945 -4.4004,2.55078 v -2.55078 z m 12.6444,0 v 17.16016 h 3.959 v -9.15235 c 0,-2.96265 1.2022,-4.19531 3.5195,-4.19531 1.144,0 1.7903,0.29445 2.377,0.67578 l 1.4961,-3.75586 c -0.792,-0.44 -1.7602,-0.73242 -3.0215,-0.73242 -2.1413,0 -3.6084,0.84945 -4.4004,2.55078 v -2.55078 z m 29.0684004,0 5.7206996,17.16016 h 3.9004 l 4.459,-11.88086 4.3418,11.88086 h 3.8125 l 6.0136,-17.16016 h -4.0195 l -3.9297,11.84961 -4.2246,-11.84961 h -3.9297 l -4.3125,11.82031 -3.7831996,-11.82031 z m 64.5624996,0 6.541,17.16016 h 3.9902 l 6.4532,-17.16016 h -4.0782 l -4.3418,12.08594 -4.4277,-12.08594 z m -136.957,3.25586 c 2.904,0 5.1621,2.31664 5.1621,5.2793 0,2.99198 -2.2581,5.33984 -5.1621,5.33984 -2.9626,0 -5.1035,-2.37719 -5.1035,-5.33984 0,-2.93333 2.1409,-5.2793 5.1035,-5.2793 z m 19.3887,0 c 2.9626,0 5.1347,2.34597 5.1347,5.2793 0,2.96265 -2.1721,5.33984 -5.1347,5.33984 -2.9333,0 -5.1914,-2.34786 -5.1914,-5.33984 0,-2.96266 2.258,-5.2793 5.1914,-5.2793 z m 143.2343,0 c 2.9627,0 5.134802,2.34597 5.134802,5.2793 0,2.96265 -2.172102,5.33984 -5.134802,5.33984 -2.9333,0 -5.1914,-2.34786 -5.1914,-5.33984 0,-2.96266 2.2581,-5.2793 5.1914,-5.2793 z m -98.9120996,0.11719 c 2.816,0 4.9883,2.31671 4.9883,5.2207 0,2.84533 -2.1723,5.19336 -4.9883,5.19336 -2.8453,0 -4.9863,-2.34803 -4.9863,-5.19336 0,-2.90399 2.141,-5.2207 4.9863,-5.2207 z m 64.8280996,0 c 2.816,0 4.9864,2.31671 4.9864,5.2207 0,2.84533 -2.1704,5.19336 -4.9864,5.19336 -2.8453,0 -4.9863,-2.34803 -4.9863,-5.19336 0,-2.90399 2.141,-5.2207 4.9863,-5.2207 z"
       inkscape:export-filename="square-onlyoutline-black.svg"
       inkscape:export-xdpi="96"
       inkscape:export-ydpi="96" /><path
       id="rect1-7-5"
       style="fill:#333333;stroke-width:4.91339;stroke-linecap:square;stroke-linejoin:bevel;stroke-miterlimit:100;paint-order:stroke fill markers"
       d="M -616.38085 215.43554 C -616.12445 215.82553 -615.8256 216.18366 -615.58398 216.58398 L -615.58398 215.43554 L -616.38085 215.43554 z M -783.84179 228.36132 C -787.34439 228.35436 -790.58927 228.74412 -794.77343 229.67382 C -798.57813 230.51922 -800.11743 231.05154 -803.40429 232.6582 C -814.69015 238.17493 -822.62635 246.33357 -828.06445 258.00781 C -831.36111 265.08486 -833.63492 274.18153 -833.66992 280.4375 C -833.67992 282.28089 -833.65988 282.43728 -833.36718 283.29297 C -832.97698 284.41809 -832.4738 285.18653 -831.5371 286.08593 C -830.59614 286.98947 -829.86476 287.44568 -828.88476 287.74414 C -828.18876 287.95608 -827.90698 287.97857 -826.55468 287.92187 C -821.68652 287.71777 -818.337 288.99183 -815.9414 291.95898 C -814.9017 293.24674 -814.24748 294.31045 -813.05078 296.67187 C -811.70918 299.31906 -811.27518 300.32368 -808.74218 306.59765 C -807.62118 309.37419 -806.30186 312.54803 -805.8125 313.65234 C -801.6002 323.15695 -795.76007 332.20697 -788.44531 340.55859 C -786.81851 342.41593 -781.73843 347.48581 -779.82617 349.16015 C -773.58767 354.62247 -766.97478 359.06294 -759.91992 362.52929 C -755.01532 364.93919 -750.69411 366.61535 -745.84375 367.98828 C -739.86785 369.67979 -734.97662 370.4809 -727.73632 370.95312 C -726.23502 371.05102 -720.00825 370.90713 -718.44335 370.73828 C -705.42133 369.33407 -694.20932 365.495 -683.79296 358.875 C -675.3314 353.49734 -666.97921 345.71073 -661.50195 338.09179 C -660.07795 336.11101 -659.48137 335.30439 -658.51757 334.05273 C -657.87677 333.22048 -657.70416 333.05868 -657.54296 333.14648 C -657.43506 333.20518 -656.65072 333.88502 -655.79882 334.65625 C -654.94692 335.42747 -652.64955 337.48136 -650.69335 339.2207 C -648.73718 340.96002 -646.64442 342.85084 -646.04492 343.42382 C -644.56582 344.83773 -640.87868 348.1068 -639.33398 349.37304 C -637.82288 350.61181 -636.23906 351.65992 -635.375 351.99218 C -634.0488 352.50217 -631.94589 352.16289 -630.68359 351.23632 C -629.22389 350.16486 -628.22684 347.91665 -628.21484 345.66406 C -628.20484 344.44839 -628.38199 343.593 -628.80859 342.73828 C -629.36829 341.61685 -631.15 339.49975 -632.2539 338.64257 C -632.6036 338.37112 -633.28096 337.77992 -633.75976 337.33007 C -634.23856 336.88027 -634.99189 336.21033 -635.43359 335.83984 C -635.87529 335.46934 -636.53243 334.86871 -636.89453 334.50586 C -637.25653 334.14301 -637.60808 333.8457 -637.67578 333.8457 C -637.86918 333.8457 -639.94267 332.11391 -640.76757 331.26367 C -641.17777 330.84089 -643.03683 329.09574 -644.89843 327.38476 C -648.82463 323.7761 -651.09484 321.58264 -651.08984 321.40625 C -651.07984 321.19776 -650.35978 319.42932 -649.51367 317.55468 C -648.06247 314.33944 -646.17727 309.11299 -645.13867 305.42382 C -644.64587 303.67364 -642.78311 295.99972 -642.66601 295.23828 C -642.62701 294.98586 -642.47467 293.17887 -642.32617 291.22265 L -642.05664 287.66601 L -642.32226 287.13867 C -642.79636 286.20232 -643.74632 285.53929 -645.35742 285.01953 C -646.23372 284.73681 -646.50633 284.70431 -648.05273 284.69531 C -650.13723 284.68271 -651.18359 284.9157 -652.15039 285.60742 C -653.81145 286.79579 -653.90563 287.01862 -654.64843 291.50976 C -655.61473 297.35297 -656.3977 300.64859 -657.79296 304.77148 C -658.63446 307.2579 -659.4802 309.42854 -660.2207 310.99609 L -660.72851 312.07031 L -661.21679 311.70898 C -662.56249 310.71967 -665.55872 307.97368 -673.17968 300.74414 C -711.42302 264.46525 -731.1139 248.57509 -750.79882 238.09961 C -762.73848 231.74579 -774.16003 228.37962 -783.84179 228.36132 z M -782.00585 242.24218 C -779.29689 242.23618 -778.27474 242.36291 -774.67578 243.16015 C -770.64828 244.05228 -765.54291 245.85866 -759.57421 248.50195 C -748.93695 253.21277 -734.28062 263.2559 -718.5 276.64843 C -717.1117 277.82663 -714.73715 279.82787 -713.22265 281.0957 C -711.70815 282.36352 -710.03089 283.79285 -709.49609 284.27148 C -702.49183 290.54022 -676.27881 315.13552 -669.93945 321.38672 C -668.32275 322.98085 -667.50175 323.87183 -667.50195 324.02929 C -667.50235 324.36526 -668.12782 325.36274 -669.36132 326.99218 C -669.94622 327.76493 -670.82675 328.98916 -671.31835 329.71484 C -672.66655 331.70507 -676.4373 335.76294 -679.7832 338.82226 C -684.09846 342.76791 -685.65546 344.0339 -687.92382 345.44336 C -693.93932 349.18121 -697.37296 350.94851 -702.23632 352.8164 C -707.18492 354.71702 -710.43934 355.48814 -717.0664 356.32422 C -722.0734 356.95589 -725.87945 357.1894 -728.40625 357.01953 C -730.37871 356.88691 -733.12258 356.59817 -735.02148 356.32422 C -745.01914 354.88191 -755.16579 350.89407 -764.27539 344.82812 C -773.32485 338.80217 -780.87744 331.21407 -787.8789 321.11132 C -790.3293 317.57559 -793.13948 312.49358 -795.33398 307.6289 C -796.23318 305.63546 -796.82503 304.18378 -799.36523 297.76172 C -802.37963 290.14086 -804.95089 284.94966 -807.30859 281.7207 C -808.23409 280.45306 -810.06471 278.64495 -811.32031 277.75781 C -813.53981 276.18948 -818.17814 274.29883 -819.80664 274.29882 C -820.06784 274.29882 -820.34196 274.23783 -820.41796 274.16211 C -820.80316 273.77701 -820.3509 271.66313 -819.2539 268.7207 C -815.28244 258.07063 -808.44276 250.40188 -798.4707 245.41797 C -795.5492 243.95785 -794.26491 243.5854 -790.09375 242.98828 C -785.74565 242.36582 -784.46685 242.24718 -782.00585 242.24218 z M -796.46875 258.98242 C -797.77781 258.98242 -797.80437 258.98842 -798.70507 259.43164 C -801.95137 261.02804 -803.15497 265.3042 -801.35937 268.86523 C -800.52137 270.52701 -799.42805 271.67056 -798.12695 272.24609 C -796.87835 272.79843 -795.35792 272.78034 -794.16992 272.20117 C -793.14622 271.70211 -791.71494 270.26996 -791.21484 269.24414 C -790.20304 267.16872 -790.25778 264.66831 -791.36328 262.46679 C -792.14398 260.91196 -793.03498 259.99253 -794.39648 259.33984 C -795.09848 259.00332 -795.22125 258.98242 -796.46875 258.98242 z M -821.875 379.48047 C -825.95226 379.48047 -828.62304 381.97314 -828.62304 384.73047 C -828.62304 388.33842 -825.54277 389.27661 -822.60937 389.89257 C -820.49737 390.3619 -818.58984 390.5961 -818.58984 391.85742 C -818.58984 393.00142 -819.55813 393.9414 -821.52343 393.9414 C -823.40073 393.9414 -824.83885 393.06059 -825.66015 391.44726 L -829.32617 393.20703 C -827.94757 395.90569 -825.54181 397.37304 -821.69921 397.37304 C -816.80055 397.37304 -814.66015 394.17486 -814.66015 391.76953 C -814.66015 388.16155 -817.88712 387.16475 -820.70312 386.60742 C -823.28442 386.0501 -824.63281 385.75728 -824.63281 384.61328 C -824.63281 383.64529 -823.75226 382.76562 -821.875 382.76562 C -820.2323 382.76562 -818.94218 383.52781 -818.23828 384.73047 L -814.86523 383.02929 C -816.18523 380.82933 -818.3843 379.48047 -821.875 379.48047 z M -803.45507 379.50976 C -805.80167 379.50976 -807.82474 380.53514 -809.02734 382.14843 L -809.02734 379.86132 L -812.95898 379.86132 L -812.95898 404.91211 L -809.02734 404.91211 L -809.02734 394.99609 C -807.82474 396.52142 -805.77234 397.37304 -803.42578 397.37304 C -799.28978 397.37304 -795.00585 394.08706 -795.00585 388.45507 C -795.00585 382.76447 -799.14311 379.50976 -803.45507 379.50976 z M -785.26757 379.50976 C -789.60887 379.50976 -793.77343 382.76447 -793.77343 388.45507 C -793.77343 394.08706 -789.46213 397.37304 -785.32617 397.37304 C -783.06757 397.37304 -781.0152 396.40434 -779.7539 394.79101 L -779.7539 397.02148 L -775.79296 397.02148 L -775.79296 379.86132 L -779.7539 379.86132 L -779.7539 381.91406 C -781.0152 380.41806 -783.00891 379.50976 -785.26757 379.50976 z M -740.35937 379.50976 C -745.31667 379.50976 -749.24609 383.43913 -749.24609 388.45507 C -749.24609 393.38306 -745.31667 397.37304 -740.35937 397.37304 C -735.43137 397.37304 -731.4707 393.38306 -731.4707 388.45507 C -731.4707 383.43913 -735.43137 379.50976 -740.35937 379.50976 z M -692.95507 379.50976 C -695.18437 379.50976 -696.94584 380.47665 -698.08984 381.97265 L -698.08984 379.86132 L -702.01953 379.86132 L -702.01953 397.02148 L -698.06054 397.02148 L -698.06054 387.60547 C -698.06054 384.58415 -696.29971 382.9414 -694.04101 382.9414 C -691.45971 382.9414 -690.16992 384.58461 -690.16992 387.2539 L -690.16992 397.02148 L -686.15039 397.02148 L -686.15039 386.84179 C -686.15039 382.17784 -688.64311 379.50976 -692.95507 379.50976 z M -675.53125 379.50976 C -680.48851 379.50976 -684.41992 383.43913 -684.41992 388.45507 C -684.41992 393.38306 -680.48851 397.37304 -675.53125 397.37304 C -670.60325 397.37304 -666.64453 393.38306 -666.64453 388.45507 C -666.64453 383.43913 -670.60325 379.50976 -675.53125 379.50976 z M -642.0332 379.50976 C -646.37446 379.50976 -650.53906 382.76447 -650.53906 388.45507 C -650.53906 394.08706 -646.22779 397.37304 -642.09179 397.37304 C -639.83319 397.37304 -637.77887 396.40434 -636.51757 394.79101 L -636.51757 397.02148 L -632.55859 397.02148 L -632.55859 379.86132 L -636.51757 379.86132 L -636.51757 381.91406 C -637.77887 380.41806 -639.7746 379.50976 -642.0332 379.50976 z M -773.38867 379.86132 L -773.38867 397.02148 L -769.42773 397.02148 L -769.42773 387.86914 C -769.42773 384.90649 -768.2255 383.67383 -765.9082 383.67382 C -764.7642 383.67382 -764.11791 383.96828 -763.53125 384.34961 L -762.03515 380.59375 C -762.82715 380.15375 -763.79534 379.86133 -765.05664 379.86132 C -767.1979 379.86132 -768.66503 380.71078 -769.45703 382.41211 L -769.45703 379.86132 L -773.38867 379.86132 z M -760.74414 379.86132 L -760.74414 397.02148 L -756.78515 397.02148 L -756.78515 387.86914 C -756.78515 384.90649 -755.58292 383.67383 -753.26562 383.67382 C -752.12162 383.67382 -751.47537 383.96828 -750.88867 384.34961 L -749.39257 380.59375 C -750.18457 380.15375 -751.15276 379.86133 -752.41406 379.86132 C -754.55536 379.86132 -756.02245 380.71078 -756.81445 382.41211 L -756.81445 379.86132 L -760.74414 379.86132 z M -731.67578 379.86132 L -725.95507 397.02148 L -722.05468 397.02148 L -717.5957 385.14062 L -713.2539 397.02148 L -709.4414 397.02148 L -703.42773 379.86132 L -707.44726 379.86132 L -711.37695 391.71093 L -715.60156 379.86132 L -719.53125 379.86132 L -723.84375 391.68164 L -727.62695 379.86132 L -731.67578 379.86132 z M -667.11328 379.86132 L -660.57226 397.02148 L -656.58203 397.02148 L -650.1289 379.86132 L -654.20703 379.86132 L -658.54882 391.94726 L -662.97656 379.86132 L -667.11328 379.86132 z M -804.07031 383.11718 C -801.16631 383.11718 -798.9082 385.43382 -798.9082 388.39648 C -798.9082 391.38846 -801.16631 393.73633 -804.07031 393.73632 C -807.03287 393.73632 -809.17382 391.35913 -809.17382 388.39648 C -809.17382 385.46315 -807.03287 383.11718 -804.07031 383.11718 z M -784.68164 383.11718 C -781.71904 383.11718 -779.54687 385.46315 -779.54687 388.39648 C -779.54687 391.35913 -781.71904 393.73633 -784.68164 393.73632 C -787.6149 393.73632 -789.87304 391.38846 -789.87304 388.39648 C -789.87304 385.43382 -787.615 383.11718 -784.68164 383.11718 z M -641.44726 383.11718 C -638.48456 383.11718 -636.3125 385.46315 -636.3125 388.39648 C -636.3125 391.35913 -638.48456 393.73633 -641.44726 393.73632 C -644.38056 393.73632 -646.63867 391.38846 -646.63867 388.39648 C -646.63867 385.43382 -644.38056 383.11718 -641.44726 383.11718 z M -740.35937 383.23437 C -737.54337 383.23437 -735.37109 385.55112 -735.37109 388.45507 C -735.37109 391.3004 -737.54337 393.64843 -740.35937 393.64843 C -743.20467 393.64843 -745.3457 391.3004 -745.3457 388.45507 C -745.3457 385.55112 -743.20467 383.23437 -740.35937 383.23437 z M -675.53125 383.23437 C -672.71525 383.23437 -670.54492 385.55112 -670.54492 388.45507 C -670.54492 391.3004 -672.71525 393.64843 -675.53125 393.64843 C -678.37651 393.64843 -680.51757 391.3004 -680.51757 388.45507 C -680.51757 385.55112 -678.37651 383.23437 -675.53125 383.23437 z "
       inkscape:export-filename="only-sparrow-black.svg"
       inkscape:export-xdpi="96"
       inkscape:export-ydpi="96" /><path
       id="rect1-7-5-4"
       style="fill:#f9f9f9;stroke-width:6.68572;stroke-linecap:square;stroke-linejoin:bevel;stroke-miterlimit:100;paint-order:stroke fill markers"
       d="m 194.23677,99.24945 c 0.34889,0.53067 0.75554,1.01798 1.08432,1.5627 v -1.5627 z m -227.866558,17.5883 c -4.766039,-0.01 -9.181395,0.52088 -14.874843,1.78594 -5.177112,1.15035 -7.27166,1.87468 -11.744138,4.06089 -15.356836,7.50669 -26.15574,18.60827 -33.555441,34.49358 -4.48582,9.62985 -7.57982,22.00782 -7.62745,30.52041 -0.0136,2.50833 0.0136,2.72113 0.41195,3.88548 0.53095,1.53097 1.21563,2.5766 2.49021,3.80042 1.28038,1.22946 2.27558,1.85024 3.60908,2.25635 0.94706,0.28839 1.33048,0.319 3.17057,0.24184 6.624182,-0.27772 11.181923,1.45591 14.441651,5.49336 1.414735,1.75227 2.304942,3.19968 3.933309,6.4129 1.825535,3.60207 2.416085,4.96907 5.862775,13.50615 1.525361,3.77808 3.32058,8.09677 3.986459,9.59942 5.731738,12.93307 13.678489,25.24756 23.631791,36.61173 2.21361,2.52731 9.12615,9.42597 11.72819,11.70427 8.488818,7.43266 17.487075,13.47487 27.086727,18.19159 6.6737606,3.27918 12.553695,5.55996 19.153651,7.42813 8.131495,2.30166 14.787064,3.39174 24.639047,4.0343 2.042841,0.13321 10.515698,-0.0626 12.64508,-0.29234 17.719254,-1.91073 32.975605,-7.13461 47.1493,-16.14254 11.51376,-7.31746 22.87871,-17.91281 30.3317,-28.28002 1.93765,-2.69527 2.74943,-3.79285 4.06089,-5.49601 0.87194,-1.13245 1.10681,-1.35261 1.32616,-1.23314 0.14682,0.0799 1.21409,1.00494 2.37328,2.05436 1.15919,1.04941 4.28526,3.84417 6.94709,6.21092 2.66179,2.36671 5.50944,4.93958 6.32519,5.71924 2.01263,1.92393 7.02978,6.3722 9.13167,8.09519 2.05618,1.68562 4.21131,3.1118 5.38705,3.56391 1.80458,0.69395 4.66604,0.23228 6.38367,-1.02851 1.98623,-1.45795 3.34293,-4.51713 3.35926,-7.58226 0.0136,-1.65418 -0.22744,-2.81812 -0.80792,-3.98115 -0.7616,-1.52595 -3.18599,-4.40672 -4.68809,-5.57309 -0.47584,-0.36937 -1.39753,-1.17382 -2.04904,-1.78594 -0.65151,-0.61205 -1.67658,-1.52365 -2.27761,-2.02778 -0.60103,-0.50414 -1.49521,-1.32143 -1.98792,-1.81517 -0.49258,-0.49373 -0.97094,-0.89828 -1.06306,-0.89828 -0.26316,0 -3.08459,-2.35648 -4.20704,-3.51341 -0.55817,-0.57528 -3.08782,-2.94994 -5.62093,-5.27809 -5.34244,-4.91036 -8.43155,-7.89503 -8.42474,-8.13505 0.0136,-0.28369 0.9934,-2.69004 2.14471,-5.24089 1.97467,-4.37502 4.5399,-11.48673 5.95314,-16.50663 0.67056,-2.3815 3.20524,-12.82352 3.36458,-13.85962 0.0531,-0.34347 0.26036,-2.80227 0.46243,-5.46413 l 0.36675,-4.83957 -0.36143,-0.71756 c -0.64512,-1.2741 -1.93774,-2.1763 -4.12999,-2.88354 -1.19239,-0.3847 -1.56334,-0.42893 -3.66755,-0.44117 -2.83641,-0.0171 -4.26021,0.29988 -5.57575,1.24112 -2.26023,1.61703 -2.38838,1.92024 -3.39912,8.0314 -1.31486,7.95094 -2.38026,12.43534 -4.27881,18.04542 -1.14504,3.3833 -2.29585,6.33693 -3.30346,8.46991 l -0.69098,1.46171 -0.66441,-0.49167 c -1.83112,-1.34616 -5.90813,-5.08267 -16.27808,-14.92001 C 64.911497,165.9649 38.117827,144.34292 11.332266,130.08878 -4.914204,121.44305 -20.455675,116.86265 -33.629788,116.83775 Z m 2.49819,18.88789 c 3.686122,-0.008 5.076977,0.16428 9.974134,1.24909 5.480278,1.21394 12.42723,3.67191 20.548929,7.26867 14.474275,6.41008 34.417359,20.07592 55.890281,38.29933 1.88908,1.60319 5.120165,4.32631 7.180968,6.05146 2.060802,1.72515 4.343074,3.67006 5.070785,4.32134 9.530799,8.52996 45.199231,41.99715 53.825301,50.50325 2.19986,2.16915 3.31701,3.38152 3.31674,3.59578 -5.5e-4,0.45716 -0.85163,1.81445 -2.53007,4.03165 -0.79589,1.05149 -1.99404,2.71732 -2.66296,3.70476 -1.83452,2.70814 -6.96543,8.22974 -11.51824,12.3926 -5.87184,5.36891 -7.990475,7.09156 -11.077065,9.00943 -8.18538,5.08615 -12.857585,7.49094 -19.475231,10.03261 -6.733632,2.5862 -11.161969,3.63547 -20.179507,4.77314 -6.813099,0.85952 -11.992047,1.17726 -15.430301,0.94612 -2.683955,-0.18046 -6.41758,-0.57335 -9.001441,-0.94612 -13.603963,-1.96257 -27.4106594,-7.38889 -39.806225,-15.64291 -12.313734,-8.1996 -22.590653,-18.52484 -32.117643,-32.2718 -3.334295,-4.81112 -7.158149,-11.72629 -10.144237,-18.34573 -1.223555,-2.7125 -2.028894,-4.68783 -5.485381,-13.42642 -4.101738,-10.36981 -7.60049,-17.43356 -10.808647,-21.82725 -1.259341,-1.72489 -3.750293,-4.18522 -5.458806,-5.39236 -3.020106,-2.13405 -9.33155,-4.70669 -11.547474,-4.7067 -0.355419,0 -0.728418,-0.083 -0.831832,-0.18602 -0.524148,-0.52401 0.0913,-3.4004 1.583953,-7.40421 5.404024,-14.49171 14.710877,-24.92669 28.280006,-31.70837 3.975328,-1.9868 5.72288,-2.4936 11.398639,-3.30611 5.916524,-0.84699 7.656606,-1.00843 11.005324,-1.01523 z m -19.67988,22.77869 c -1.781257,0 -1.817398,0.008 -3.042994,0.61126 -4.417288,2.17224 -6.055044,7.99088 -3.611745,12.83642 1.140279,2.26121 2.627976,3.81726 4.398402,4.60039 1.698988,0.75158 3.76786,0.72696 5.384389,-0.0611 1.392963,-0.67907 3.340527,-2.62782 4.02102,-4.02367 1.376772,-2.82405 1.302286,-6.2264 -0.201984,-9.22204 -1.06231,-2.11568 -2.274707,-3.36676 -4.12732,-4.25489 -0.955222,-0.4579 -1.122277,-0.48634 -2.819768,-0.48634 z M -85.382136,322.4678 c -5.547984,0 -9.182154,3.39181 -9.182154,7.14375 0,4.90939 4.19136,6.186 8.182886,7.02414 2.873829,0.63863 5.469434,0.95731 5.469434,2.67361 0,1.55665 -1.317567,2.8357 -3.99178,2.8357 -2.554469,0 -4.51134,-1.19853 -5.6289,-3.39382 l -4.9884,2.39455 c 1.87588,3.67211 5.14943,5.66875 10.378114,5.66875 6.665679,0 9.578152,-4.35181 9.578152,-7.62478 0,-4.90943 -4.390985,-6.26579 -8.222758,-7.02416 -3.512412,-0.75835 -5.347187,-1.15679 -5.347187,-2.71345 0,-1.31716 1.198178,-2.51414 3.752593,-2.51414 2.235246,0 3.990731,1.03712 4.948538,2.6736 l 4.589759,-2.31482 c -1.796143,-2.99352 -4.78845,-4.82893 -9.538297,-4.82893 z m 25.06427,0.0399 c -3.193054,0 -5.945875,1.39525 -7.58227,3.59047 v -3.1121 h -5.349841 v 34.08698 h 5.349841 v -13.49288 c 1.636395,2.07554 4.429126,3.23435 7.622125,3.23435 5.627916,0 11.457122,-4.47128 11.457122,-12.13481 0,-7.74328 -5.62963,-12.17201 -11.496977,-12.17201 z m 24.747998,0 c -5.907271,0 -11.574049,4.42873 -11.574049,12.17201 0,7.66353 5.86645,12.13481 11.494311,12.13481 3.07331,0 5.866,-1.31812 7.58227,-3.5134 v 3.035 h 5.389709 v -23.35008 h -5.389709 v 2.79319 c -1.71627,-2.03563 -4.42914,-3.27156 -7.502532,-3.27156 z m 61.107247,0 c -6.745471,0 -12.09229,5.34675 -12.09229,12.17201 0,6.70559 5.346819,12.13481 12.09229,12.13481 6.705603,0 12.094945,-5.42922 12.094945,-12.13481 0,-6.82526 -5.389342,-12.17201 -12.094945,-12.17201 z m 64.503726,0 c -3.03344,0 -5.430297,1.31566 -6.986954,3.35129 v -2.87292 h -5.347187 v 23.35005 h 5.387056 v -12.8125 c 0,-4.11116 2.395985,-6.34647 5.469435,-6.34647 3.51241,0 5.26745,2.23594 5.26745,5.86808 v 13.29089 h 5.46943 v -13.85165 c 0,-6.34631 -3.39188,-9.9768 -9.25923,-9.9768 z m 23.708845,0 c -6.74542,0 -12.09494,5.34675 -12.09494,12.17201 0,6.70559 5.34952,12.13481 12.09494,12.13481 6.7056,0 12.09229,-5.42922 12.09229,-12.13481 0,-6.82526 -5.38669,-12.17201 -12.09229,-12.17201 z m 45.5813,0 c -5.90722,0 -11.57406,4.42873 -11.57406,12.17201 0,7.66353 5.86641,12.13481 11.49433,12.13481 3.07331,0 5.86865,-1.31812 7.58492,-3.5134 v 3.035 h 5.38705 v -23.35008 h -5.38705 v 2.79319 c -1.71627,-2.03563 -4.43188,-3.27156 -7.50519,-3.27156 z m -178.737325,0.47834 v 23.35008 h 5.38971 V 333.8824 c 0,-4.03132 1.635892,-5.70862 4.789076,-5.70864 1.556658,0 2.436074,0.40068 3.234351,0.91956 l 2.035765,-5.11065 c -1.077686,-0.59872 -2.395116,-0.99662 -4.111386,-0.99663 -2.913644,0 -4.909989,1.15587 -5.987675,3.4709 v -3.4709 z m 17.205599,0 v 23.35008 H 3.1865786 V 333.8824 c 0,-4.03132 1.635892,-5.70862 4.789076,-5.70864 1.556658,0 2.4360204,0.40068 3.2343514,0.91956 l 2.035765,-5.11065 c -1.077686,-0.59872 -2.395116,-0.99662 -4.1113854,-0.99663 -2.913699,0 -4.90999,1.15587 -5.987676,3.4709 v -3.4709 z m 39.553744,0 7.784255,23.35008 h 5.307318 l 6.067399,-16.16646 5.907951,16.16646 h 5.187725 l 8.182889,-23.35008 h -5.469433 l -5.347187,16.12394 -5.748489,-16.12394 h -5.347187 l -5.868082,16.08408 -5.147856,-16.08408 z m 87.851142,0 8.90046,23.35008 h 5.42956 l 8.78087,-23.35008 h -5.54917 l -5.90794,16.44552 -6.02489,-16.44552 z m -186.359443,4.4303 c 3.951516,0 7.024159,3.15228 7.024159,7.18362 0,4.07123 -3.072643,7.26601 -7.024159,7.266 -4.031199,0 -6.944421,-3.23468 -6.944421,-7.266 0,-3.99143 2.913222,-7.18362 6.944421,-7.18362 z m 26.382449,0 c 4.031253,0 6.986957,3.19219 6.986957,7.18362 0,4.03132 -2.955704,7.26601 -6.986957,7.266 -3.99133,0 -7.064015,-3.19477 -7.064015,-7.266 0,-4.03134 3.072549,-7.18362 7.064015,-7.18362 z m 194.901124,0 c 4.03139,0 6.98695,3.19219 6.98695,7.18362 0,4.03132 -2.95556,7.26601 -6.98695,7.266 -3.99138,0 -7.06403,-3.19477 -7.06403,-7.266 0,-4.03134 3.07265,-7.18362 7.06403,-7.18362 z M 25.537379,327.5758 c 3.831773,0 6.787627,3.15243 6.787627,7.10388 0,3.87168 -2.955854,7.06668 -6.787627,7.06668 -3.871641,0 -6.784972,-3.195 -6.784972,-7.06668 0,-3.95145 2.913331,-7.10388 6.784972,-7.10388 z m 88.212571,0 c 3.83177,0 6.78497,3.15243 6.78497,7.10388 0,3.87168 -2.9532,7.06668 -6.78497,7.06668 -3.87158,0 -6.78495,-3.195 -6.78495,-7.06668 0,-3.95145 2.91337,-7.10388 6.78495,-7.10388 z" /><path
       id="path1-8"
       style="fill:#000000;stroke-width:4.91339;stroke-linecap:square;stroke-linejoin:bevel;stroke-miterlimit:100;paint-order:stroke fill markers"
       d="M -750.64737,-235.08679 A 203.98663,203.98663 0 0 0 -954.63371,-31.100464 203.98663,203.98663 0 0 0 -750.64737,172.88587 203.98663,203.98663 0 0 0 -546.66105,-31.100464 203.98663,203.98663 0 0 0 -750.64737,-235.08679 Z m 0,8.86719 A 195.11774,195.11774 0 0 1 -555.52823,-31.102414 195.11774,195.11774 0 0 1 -750.64737,164.01673 195.11774,195.11774 0 0 1 -945.76461,-31.102414 195.11774,195.11774 0 0 1 -750.64737,-226.2196 Z m 157.29296,46.20508 c 0.34889,0.53067 0.75716,1.01973 1.08594,1.56445 v -1.56445 z m -227.86523,17.58984 c -4.76602,-0.01 -9.18156,0.5201 -14.875,1.78516 -5.17709,1.15035 -7.27166,1.87435 -11.74414,4.06054 -15.35683,7.50669 -26.15703,18.60887 -33.55663,34.49414 -4.4859,9.62983 -7.5794,22.00696 -7.627,30.519526 -0.014,2.50833 0.014,2.72237 0.4121,3.88672 0.531,1.53097 1.2157,2.57697 2.4902,3.80078 1.2804,1.22946 2.2759,1.84975 3.6094,2.25586 0.9471,0.28839 1.3299,0.31939 3.1699,0.24219 6.6242,-0.27772 11.1817,1.45474 14.4414,5.49219 1.4148,1.75226 2.3053,3.20085 3.9336,6.41406 1.8256,3.60207 2.41663,4.9688 5.86333,13.50586 1.52539,3.77807 3.32048,8.09696 3.98636,9.59961 5.73172,12.93304 13.67953,25.24718 23.63281,36.6113305 2.21361,2.5273 9.12453,9.42482987 11.72656,11.7031199 8.4888,7.43265 17.48825,13.4766596 27.08789,18.1933596 6.67375,3.27918 12.5524,5.55958 19.15235,7.42774 8.13148,2.30166 14.78866,3.39064 24.64062,4.0332 2.04284,0.13321 10.51515,-0.06128 12.64453,-0.29102 17.71921,-1.91072 32.97477,-7.13465 47.14844,-16.14257 11.51374,-7.3174496 22.87906,-17.9140596 30.33203,-28.28125 1.93765,-2.69526 2.74909,-3.79294 4.06055,-5.4961 0.87194,-1.13242 1.10682,-1.35189 1.32617,-1.23242 0.14682,0.0799 1.21581,1.00527 2.375,2.05469 1.15919,1.04941 4.28349,3.8442 6.94531,6.21094 2.66179,2.3667005 5.51043,4.9390905 6.32617,5.7187505 2.01263,1.9239199 7.02899,6.37270987 9.13086,8.0956999 2.05618,1.68562 4.21294,3.11234 5.38867,3.56445 1.80457,0.69395 4.66519,0.23149 6.38282,-1.02929 1.98623,-1.45795 3.34307,-4.51691003 3.35937,-7.58204 0.0136,-1.65417 -0.22811,-2.8193899 -0.80859,-3.9824199 -0.7616,-1.52595 -3.1854,-4.4058905 -4.6875,-5.5722605 -0.47584,-0.36937 -1.39732,-1.17304 -2.04883,-1.78516 -0.65151,-0.61205 -1.67631,-1.52517 -2.27734,-2.0293 -0.60103,-0.50414 -1.49557,-1.32071 -1.98828,-1.81445 -0.49258,-0.49373 -0.9704,-0.89844 -1.0625,-0.89844 -0.26316,0 -3.0846,-2.35674 -4.20704,-3.51367 -0.55817,-0.57528 -3.08798,-2.94919 -5.62109,-5.27734 -5.34242,-4.91035 -8.43278,-7.89475 -8.42578,-8.13477 0.0136,-0.28369 0.99322,-2.69134 2.14453,-5.24219 1.97467,-4.375 4.53989,-11.48596 5.95313,-16.50586 0.67055,-2.38149 3.20589,-12.82327 3.36523,-13.85937 0.0531,-0.34347 0.26082,-2.80299 0.46289,-5.46484 l 0.36719,-4.83985 -0.36328,-0.71679 c -0.64512,-1.2741 -1.93666,-2.17558 -4.12891,-2.88282 -1.19239,-0.38471 -1.56376,-0.4292 -3.66797,-0.4414 -2.8364,-0.0171 -4.26063,0.29899 -5.57617,1.24023 -2.26023,1.61703 -2.3877,1.9201 -3.39844,8.03125 -1.31485,7.95092 -2.38076,12.43681 -4.27929,18.04688 -1.14504,3.38329 -2.29513,6.33578 -3.30274,8.46875 l -0.69141,1.46289 -0.66406,-0.49219 c -1.83111,-1.34616 -5.90741,-5.08259 -16.27734,-14.91992 -52.03817,-49.365116 -78.83363,-70.988076 -105.61914,-85.242186 -16.24644,-8.64571 -31.78685,-13.2251 -44.96094,-13.25 z m 2.49805,18.88672 c 3.68611,-0.008 5.07746,0.16519 9.97461,1.25 5.48026,1.21394 12.42714,3.67083 20.54882,7.26758 14.47425,6.41007 34.4158,20.0774 55.88868,38.300776 1.88907,1.60318 5.12084,4.32563 7.18164,6.05078 2.0608,1.72515 4.3426,3.66903 5.07031,4.32031 9.53078,8.52994 45.20012,41.99782 53.82617,50.50391 2.19986,2.16914 3.31668,3.38144 3.31641,3.5957 -5.5e-4,0.45716 -0.85086,1.81405 -2.5293,4.03125 -0.79589,1.05149 -1.99514,2.71764 -2.66406,3.70508 -1.83452,2.70813 -6.96477,8.22973 -11.51758,12.39258 -5.87182,5.3689005 -7.99154,7.0919005 -11.07812,9.0097604 -8.18537,5.08615 -12.85698,7.49155 -19.47461,10.03321 -6.73363,2.58619 -11.16217,3.6357596 -20.17969,4.7734296 -6.81308,0.85951 -11.99143,1.17646 -15.42969,0.94532 -2.68395,-0.18046 -6.41809,-0.57255 -9.00195,-0.94532 -13.60394,-1.9625596 -27.4111,-7.3905296 -39.80664,-15.6445296 -12.31371,-8.1995804 -22.59022,-18.5245604 -32.11719,-32.2714804 -3.33429,-4.81112 -7.15844,-11.72627 -10.14453,-18.34571 -1.22355,-2.71248 -2.0279,-4.6872 -5.48438,-13.42578 -4.10173,-10.36979 -7.60043,-17.43445 -10.80859,-21.82812 -1.2593,-1.72489 -3.7505,-4.18544 -5.459,-5.39258 -3.02013,-2.13405 -9.33093,-4.70507 -11.54693,-4.70508 -0.3554,0 -0.7286,-0.08448 -0.832,-0.187496 -0.5241,-0.52401 0.091,-3.40049 1.584,-7.40429 5.404,-14.49168 14.71023,-24.92538 28.27932,-31.70704 3.97533,-1.98679 5.72269,-2.49414 11.39844,-3.30664 5.91651,-0.84699 7.65715,-1.00862 11.00586,-1.01562 z m -19.67969,22.7793 c -1.78125,0 -1.81737,0.008 -3.04297,0.61132 -4.41727,2.17224 -6.05462,7.99041 -3.61133,12.83594 1.14027,2.26121 2.62802,3.81843 4.39844,4.60156 1.69899,0.75158 3.76628,0.72556 5.38281,-0.0625 1.39296,-0.67907 3.341,-2.62759 4.02149,-4.02343 1.37677,-2.82404 1.30309,-6.22703 -0.20117,-9.22266 -1.06231,-2.11568 -2.2763,-3.36578 -4.12891,-4.25391 -0.95522,-0.45793 -1.12087,-0.48632 -2.81836,-0.48632 z m -34.57033,163.962886 c -5.548,0 -9.1836,3.3926 -9.1836,7.14453 0,4.90938 4.1921,6.1853 8.1836,7.02343 2.8738,0.63863 5.4687,0.95753 5.4687,2.67383 0,1.55665 -1.316,2.83594 -3.9902,2.83594 -2.5545,0 -4.5113,-1.19924 -5.6289,-3.39453 l -4.9902,2.39453 c 1.8758,3.67211 5.1502,5.66992 10.3789,5.66992 6.6656,0 9.5781,-4.35203 9.5781,-7.625 0,-4.90942 -4.3909,-6.26702 -8.2227,-7.02539 -3.5124,-0.75835 -5.3476,-1.15623 -5.3476,-2.71289 0,-1.31716 1.1995,-2.51367 3.7539,-2.51367 2.2352,0 3.9894,1.03736 4.9472,2.67383 l 4.5899,-2.31446 c -1.7961,-2.99351 -4.7873,-4.83007 -9.5371,-4.83007 z m 25.06252,0.04101 c -3.19305,0 -5.94569,1.39464 -7.58199,3.58985 v -3.11133 h -5.34973 v 34.08593 h 5.34973 v -13.49218 c 1.6363,2.07554 4.43001,3.23437 7.623,3.23437 5.62791,0 11.45703,-4.47124 11.45703,-12.13476 0,-7.74327 -5.63071,-12.17188 -11.49804,-12.17188 z m 24.74804,0 c -5.90726,0 -11.57226,4.42861 -11.57226,12.17188 0,7.66352 5.8663,12.13476 11.49414,12.13476 3.07331,0 5.86577,-1.31839 7.58203,-3.51367 v 3.03516 h 5.38867 v -23.34961 h -5.38867 v 2.79297 c -1.71626,-2.03562 -4.43052,-3.27149 -7.50391,-3.27149 z m 61.10743,0 c -6.74546,0 -12.0918,5.34663 -12.0918,12.17188 0,6.70558 5.34634,12.13476 12.0918,12.13476 6.70559,0 12.0957,-5.42918 12.0957,-12.13476 0,-6.82525 -5.39011,-12.17188 -12.0957,-12.17188 z m 64.5039,0 c -3.03343,0 -5.42968,1.31594 -6.98633,3.35156 v -2.87304 h -5.34765 v 23.34961 h 5.38672 v -12.8125 c 0,-4.11115 2.39726,-6.34766 5.4707,-6.34766 3.51241,0 5.26758,2.237 5.26758,5.86914 v 13.29102 h 5.46875 v -13.85157 c 0,-6.34629 -3.39243,-9.97656 -9.25977,-9.97656 z m 23.70899,0 c -6.74542,0 -12.09375,5.34663 -12.09375,12.17188 0,6.70558 5.34833,12.13476 12.09375,12.13476 6.70558,0 12.09179,-5.42918 12.09179,-12.13476 0,-6.82525 -5.38621,-12.17188 -12.09179,-12.17188 z m 45.58203,0 c -5.90721,0 -11.57422,4.42861 -11.57422,12.17188 0,7.66352 5.86624,12.13476 11.49414,12.13476 3.07331,0 5.86772,-1.31839 7.58398,-3.51367 v 3.03516 h 5.38868 v -23.34961 h -5.38868 v 2.79297 c -1.71626,-2.03562 -4.43059,-3.27149 -7.5039,-3.27149 z m -178.73828,0.47852 v 23.34961 h 5.39062 v -12.45313 c 0,-4.03131 1.63589,-5.70896 4.78906,-5.70898 1.55665,0 2.43611,0.39909 3.23438,0.91797 l 2.03516,-5.10938 c -1.07769,-0.59872 -2.39506,-0.99608 -4.11133,-0.99609 -2.91364,0 -4.9106,1.15567 -5.98828,3.4707 v -3.4707 z m 17.20703,0 v 23.34961 h 5.38672 v -12.45313 c 0,-4.03131 1.63588,-5.70896 4.78906,-5.70898 1.55666,0 2.43605,0.39909 3.23437,0.91797 l 2.03516,-5.10938 c -1.07768,-0.59872 -2.39507,-0.99608 -4.11133,-0.99609 -2.91369,0 -4.91059,1.15567 -5.98828,3.4707 v -3.4707 z m 39.55273,0 7.78516,23.34961 h 5.30664 l 6.06836,-16.16602 5.90625,16.16602 h 5.1875 l 8.18359,-23.34961 h -5.46875 l -5.34765,16.12304 -5.74805,-16.12304 h -5.34766 l -5.86718,16.08398 -5.14844,-16.08398 z m 87.85156,0 8.9004,23.34961 h 5.42968 l 8.78125,-23.34961 h -5.54883 l -5.9082,16.44531 -6.02539,-16.44531 z m -186.35937,4.42968 c 3.95152,0 7.02344,3.15226 7.02344,7.1836 0,4.07121 -3.07192,7.26563 -7.02344,7.26562 -4.03119,0 -6.94535,-3.23432 -6.94535,-7.26562 0,-3.99143 2.91416,-7.1836 6.94535,-7.1836 z m 26.38281,0 c 4.03125,0 6.98633,3.19217 6.98633,7.1836 0,4.0313 -2.95508,7.26563 -6.98633,7.26562 -3.99132,0 -7.06445,-3.19441 -7.06445,-7.26562 0,-4.03134 3.07299,-7.1836 7.06445,-7.1836 z m 194.90039,0 c 4.03139,0 6.98633,3.19217 6.98633,7.1836 0,4.0313 -2.95494,7.26563 -6.98633,7.26562 -3.99136,0 -7.06445,-3.19441 -7.06445,-7.26562 0,-4.03134 3.07309,-7.1836 7.06445,-7.1836 z m -134.59179,0.16016 c 3.83176,0 6.78906,3.15208 6.78906,7.10352 0,3.87167 -2.9573,7.06641 -6.78906,7.0664 -3.87164,0 -6.78516,-3.19473 -6.78516,-7.0664 0,-3.95144 2.91352,-7.10352 6.78516,-7.10352 z m 88.21289,0 c 3.83175,0 6.78515,3.15208 6.78515,7.10352 0,3.87167 -2.9534,7.06641 -6.78515,7.0664 -3.87158,0 -6.78516,-3.19473 -6.78516,-7.0664 0,-3.95144 2.91358,-7.10352 6.78516,-7.10352 z" /></g></svg>
